<svg width="48" height="48" viewBox="0 0 48 48" fill="none" xmlns="http://www.w3.org/2000/svg">
<path d="M14.2983 44.3273C16.4454 44.3273 18.1967 42.5759 18.1967 40.429C18.1967 38.2819 16.4453 36.5333 14.2983 36.5333C12.1514 36.5333 10.4 38.2819 10.4 40.429C10.4 42.5759 12.1513 44.3273 14.2983 44.3273Z" fill="#A2D2FF" stroke="#03045E" stroke-miterlimit="10" stroke-linejoin="round"/>
<path d="M37.3033 44.3273C39.4504 44.3273 41.199 42.5759 41.199 40.429C41.199 38.2819 39.4504 36.5333 37.3033 36.5333C35.1563 36.5333 33.405 38.2819 33.405 40.429C33.4049 42.5759 35.1563 44.3273 37.3033 44.3273Z" fill="#A2D2FF" stroke="#03045E" stroke-miterlimit="10" stroke-linejoin="round"/>
<path d="M17.5522 20.4105C22.1618 20.4105 25.9211 16.6512 25.9211 12.0416C25.9211 7.43201 22.1618 3.67273 17.5522 3.67273C12.9426 3.67273 9.18335 7.43201 9.18335 12.0416C9.18335 16.6512 12.9426 20.4105 17.5522 20.4105Z" fill="#A2D2FF" stroke="#03045E" stroke-miterlimit="10" stroke-linejoin="round"/>
<path d="M29.9612 39.4716H33.5226M41.0813 39.4716H47.0625V29.2151L43.8433 22.8007C42.4609 20.4318 41.0438 18.6297 37.2284 18.6297H29.9611" stroke="#03045E" stroke-miterlimit="10" stroke-linejoin="round"/>
<path d="M47.0625 29.2151H39.4128C37.0439 29.2151 35.1028 27.2766 35.1028 24.905V18.6297" stroke="#03045E" stroke-miterlimit="10" stroke-linejoin="round"/>
<path d="M1.03918 21.0281H8.12997" stroke="#03045E" stroke-miterlimit="10" stroke-linejoin="round"/>
<path d="M2.78772 27.1751H11.932" stroke="#03045E" stroke-miterlimit="10" stroke-linejoin="round"/>
<path d="M0.9375 33.3248H8.27428" stroke="#03045E" stroke-miterlimit="10" stroke-linejoin="round"/>
<path d="M10.5175 39.4716H5.14331V14.8811H9.67537M25.4264 14.8811H29.9611V39.4716H18.0763" stroke="#03045E" stroke-miterlimit="10" stroke-linejoin="round"/>
<path d="M17.5522 7.61121V12.0416H19.8004" stroke="#03045E" stroke-miterlimit="10" stroke-linejoin="round"/>
</svg>
