<svg width="48" height="48" viewBox="0 0 48 48" fill="none" xmlns="http://www.w3.org/2000/svg">
<path d="M7.19067 25.0828V17.1375C7.19067 14.4962 5.04944 12.355 2.40813 12.355H1.40079V29.1643L6.2176 38.6425C6.85729 39.9014 7.19067 43.161 7.19067 44.573V46.387H24" stroke="#03045E" stroke-miterlimit="10" stroke-linejoin="round"/>
<path d="M11.6264 34.5301L7.56895 26.4562C6.72456 24.9312 7.34473 23.0099 8.92145 22.2663C10.3904 21.5736 12.1442 22.1681 12.889 23.6113L16.2848 30.1799C16.7396 31.0597 18.5928 32.3315 20.3689 33.402C22.6229 34.7606 24 37.201 24 39.8328V42.7052" stroke="#03045E" stroke-miterlimit="10" stroke-linejoin="round"/>
<path d="M36.3735 34.53L40.431 26.4562C41.2754 24.9311 40.6553 23.0098 39.0785 22.2663C37.6096 21.5736 35.8558 22.1681 35.111 23.6112L31.7152 30.1798C31.2604 31.0596 29.4072 32.3314 27.6311 33.4019C25.3771 34.7606 24 37.2009 24 39.8328V46.3869H40.8093V44.5729C40.8093 43.1007 41.1594 39.7818 41.8308 38.4715L46.5992 29.1644V12.355H45.5919C42.9506 12.355 40.8093 14.4963 40.8093 17.1376V25.0829" stroke="#03045E" stroke-miterlimit="10" stroke-linejoin="round"/>
<path d="M32.5604 1.61304H15.4338V18.0091H32.5604V1.61304Z" fill="#A2D2FF" stroke="#03045E" stroke-miterlimit="10" stroke-linejoin="round"/>
<path d="M23.9971 1.61304V6.94729" stroke="#03045E" stroke-miterlimit="10" stroke-linejoin="round"/>
<path d="M9.65118 5.57763L5.73236 1.65881" stroke="#03045E" stroke-miterlimit="10" stroke-linejoin="round"/>
<path d="M38.3488 5.57763L42.2676 1.65881" stroke="#03045E" stroke-miterlimit="10" stroke-linejoin="round"/>
</svg>
