<svg width="48" height="48" viewBox="0 0 48 48" fill="none" xmlns="http://www.w3.org/2000/svg">
<path d="M21.1875 2.90625V14.1562L15.5625 11.3438L9.9375 14.1562V2.90625" fill="#A2D2FF"/>
<path d="M21.1875 2.90625V14.1562L15.5625 11.3438L9.9375 14.1562V2.90625" stroke="#03045E" stroke-miterlimit="10" stroke-linejoin="round"/>
<path d="M46.5937 33.8438C46.5937 40.0569 41.4632 45.0938 35.25 45.0938C29.0368 45.0938 24 40.0569 24 33.8438C24 27.6306 29.0368 22.5938 35.25 22.5938C41.4632 22.5938 46.5937 27.6306 46.5937 33.8438Z" fill="#A2D2FF" stroke="#03045E" stroke-miterlimit="10" stroke-linejoin="round"/>
<path d="M24.3545 31.0312H1.40625V2.90625H29.625V24.0988" stroke="#03045E" stroke-miterlimit="10" stroke-linejoin="round"/>
<path d="M29.625 8.53125H21.1875" stroke="#03045E" stroke-miterlimit="10" stroke-linejoin="round"/>
<path d="M9.9375 8.53125H1.40625" stroke="#03045E" stroke-miterlimit="10" stroke-linejoin="round"/>
<path d="M5.625 25.4062H11.3437" stroke="#03045E" stroke-miterlimit="10" stroke-linejoin="round"/>
<path d="M37.3146 30.0865C36.8317 29.3983 35.6173 28.8869 34.0301 29.3651C32.5728 29.804 31.9197 32.1362 33.8205 33.0326C34.1188 33.1732 34.8831 33.4735 36.0363 33.8811C38.6172 34.7934 38.702 38.1831 35.6389 38.4506C34.6182 38.5398 33.1627 38.2654 32.3883 37.3039" stroke="#03045E" stroke-miterlimit="10" stroke-linejoin="round"/>
<path d="M35.0458 28.1836V39.3473" stroke="#03045E" stroke-miterlimit="10" stroke-linejoin="round"/>
</svg>
