<svg width="25" height="25" viewBox="0 0 25 25" fill="none" xmlns="http://www.w3.org/2000/svg">
<path d="M20.036 6.63559C20.2015 6.38356 20.367 6.13152 20.4497 5.96349C20.6153 5.71146 20.7808 5.45941 20.8635 5.20738C21.3601 4.45127 21.8566 3.69516 22.3532 2.93905C22.5187 2.68701 22.6842 2.35096 22.8497 2.09893C22.0222 2.43497 21.2773 2.85504 20.5325 3.19109C20.2015 2.603 19.8704 1.93091 19.4566 1.34282C19.0429 0.754735 18.4635 0.0826295 17.636 0.166642C15.4842 0.166642 13.2497 0.0826295 11.098 0.166642C11.9256 0.502691 12.6704 0.922762 13.2497 1.59486C13.6635 2.01492 13.9946 2.51899 14.3256 3.02307C14.7394 3.77918 15.1532 4.61929 15.567 5.45941C15.6497 5.62744 15.7325 5.79546 15.8153 6.0475C15.6497 6.0475 15.567 6.21552 15.4015 6.29954C14.7394 6.63559 14.0773 7.05565 13.498 7.47572C15.4842 7.47572 17.5532 7.55973 19.5394 7.64374C19.7049 7.3917 19.8704 7.13966 20.036 6.88762V6.63559Z" fill="#25408F"/>
<path d="M5.63595 5.96352C5.88422 6.13155 6.21526 6.29956 6.46353 6.46759C7.70491 7.2237 8.94629 7.97982 10.1877 8.73593C10.6842 7.81179 11.2635 6.97166 11.7601 6.04753C11.8428 5.79549 12.0084 5.62748 12.1739 5.37544C12.6704 4.61933 13.0842 3.77921 13.5808 3.0231C13.2497 2.60303 13.0015 2.09896 12.5877 1.76291C11.098 0.334704 8.5325 0.334707 7.1256 2.01495C6.79457 2.43501 6.54629 2.93908 6.29801 3.35914C5.88422 4.11525 5.47043 4.78735 4.97388 5.54346C5.13939 5.71149 5.30491 5.8795 5.55319 6.04753L5.63595 5.96352Z" fill="#25408F"/>
<path d="M22.0222 6.97164C20.4498 7.89578 18.8773 8.7359 17.3049 9.74405C17.4704 9.99608 17.636 10.3321 17.8015 10.5842C17.967 10.8362 18.1325 11.1723 18.298 11.4243C18.9601 12.6845 19.7049 13.9447 20.367 15.2048C20.367 15.2048 20.4498 15.4569 20.5325 15.5409C21.1946 15.5409 21.8567 15.4569 22.5187 15.2048C23.9256 14.5327 24.9187 13.0205 24.836 11.4243C24.836 11.1723 24.7532 10.9202 24.6704 10.5842C24.0911 9.23997 23.2636 8.0638 22.6015 6.80362C22.436 6.88763 22.2705 6.97165 22.1049 7.05566L22.0222 6.97164Z" fill="#25408F"/>
<path d="M5.7187 14.9528C6.38077 13.8607 7.04283 12.8525 7.7049 11.8444C8.44973 12.3484 9.27732 12.7685 10.1049 13.1886C9.77387 12.6005 9.52559 12.0964 9.19456 11.5083C9.02904 11.2563 8.86352 10.9202 8.69801 10.6682C8.20146 9.74406 7.7049 8.73592 7.12559 7.81178C5.05663 7.72777 2.9049 7.55975 0.835938 7.47574C1.49801 7.97981 2.24283 8.48387 2.98766 8.98795C2.65663 9.49202 2.32559 9.9961 2.07732 10.5842C1.99456 10.8362 1.82904 11.0883 1.74628 11.3403C1.58077 11.7604 1.49801 12.3484 1.74628 12.7685C2.07732 13.4406 2.49111 14.1127 2.82214 14.7848C2.98766 15.1208 3.23594 15.4569 3.40145 15.7929C3.64973 16.213 3.89801 16.6331 4.14628 17.0531C4.22904 17.2212 4.3118 17.3892 4.47732 17.6412C4.72559 18.0613 4.89111 18.4813 5.13939 18.8174C4.97387 17.8092 5.05663 16.7171 5.3049 15.7929C5.38766 15.4569 5.55318 15.2049 5.63594 14.8688L5.7187 14.9528Z" fill="#25408F"/>
<path d="M21.6084 15.961C20.036 16.297 18.4636 15.961 16.8912 15.961C16.8912 15.0368 16.8912 14.1127 16.8912 13.2726C16.4774 13.9447 16.0636 14.6168 15.6498 15.2889C15.567 15.4569 15.4015 15.7089 15.3188 15.961C15.0705 16.381 14.8222 16.7171 14.5739 17.1372C14.4084 17.4732 14.2429 17.7252 13.9946 18.0613C13.9946 18.1453 13.8291 18.3973 13.7463 18.4813C14.0774 19.2374 14.4084 19.8255 14.7394 20.5816C15.0705 21.1697 15.3188 21.7578 15.567 22.2619C15.8981 22.934 16.2291 23.6061 16.5601 24.2782C16.5601 23.6061 16.6429 23.018 16.7256 22.3459C16.7256 22.0939 16.7256 21.8418 16.8912 21.5898C17.967 21.5898 19.1256 21.5898 20.1188 21.2537C20.367 21.1697 20.6153 20.9177 20.7808 20.6657C21.2774 19.7415 21.8567 18.8174 22.436 17.8933C22.6015 17.5572 22.767 17.3052 22.9325 16.9691C23.1808 16.5491 23.4291 16.129 23.6774 15.7089C23.7601 15.5409 23.8429 15.3729 24.0084 15.2049C24.0912 15.0368 24.1739 14.8688 24.3394 14.7008C24.0912 14.8688 23.7601 15.1208 23.5119 15.2889C23.0153 15.6249 22.436 15.877 21.7739 16.045L21.6084 15.961Z" fill="#25408F"/>
<path d="M6.0497 15.7089C5.30487 17.3892 5.63591 19.4895 7.0428 20.6657C7.53936 21.0857 8.20143 21.4218 8.86349 21.4218C10.1876 21.5058 11.429 21.4218 12.7531 21.4218C12.7531 21.0857 12.7531 20.8337 12.7531 20.4976C12.7531 19.5735 12.7531 18.6494 12.7531 17.7252C12.7531 17.4732 12.7531 17.2211 12.7531 16.9691C12.7531 16.549 12.7531 16.129 12.7531 15.7089C12.7531 15.6249 12.7531 15.3729 12.7531 15.2049C10.6014 15.1208 8.4497 15.2049 6.29798 15.0368C6.21522 15.2049 6.0497 15.3729 5.96694 15.5409L6.0497 15.7089Z" fill="#25408F"/>
</svg>
