<svg width="24" height="26" viewBox="0 0 24 26" fill="none" xmlns="http://www.w3.org/2000/svg">
<path d="M13.4084 6.0913C13.9877 5.67124 14.6498 5.25118 15.2291 4.83112C15.3118 4.74711 15.4774 4.6631 15.6429 4.57908C15.9739 4.32705 16.3877 4.07501 16.7187 3.82297C16.8843 3.65495 17.0498 3.57094 17.2153 3.40291C17.0498 3.23489 16.8843 3.15088 16.7187 3.06686C16.636 3.06686 16.5532 2.98285 16.3877 2.89884C16.3877 2.89884 16.2222 2.81483 16.1394 2.73082C14.898 1.97471 13.6567 1.2186 12.3325 0.462486C12.167 0.462486 12.0015 0.294461 11.836 0.210449C11.6705 0.294461 11.4222 0.462486 11.2567 0.546498C9.84977 1.38662 8.44287 2.22674 6.95322 3.06686C6.7877 3.15088 6.62218 3.23489 6.45667 3.40291C6.62218 3.57094 6.87046 3.73896 7.03598 3.82297C7.44977 4.07501 7.7808 4.41106 8.1946 4.6631C8.36011 4.74711 8.52563 4.91513 8.69115 4.99915C9.1877 5.33519 9.68425 5.67124 10.1808 6.0913C10.3463 6.17532 10.4291 6.25933 10.5946 6.34334C11.0084 6.59538 11.3394 6.93143 11.7532 7.18346C11.7532 7.18346 11.836 7.18346 11.9187 7.18346C12.3325 6.93143 12.6636 6.59538 13.0774 6.34334C13.1601 6.34334 13.3256 6.17532 13.4084 6.0913Z" fill="#25408F"/>
<path d="M10.7601 7.68755C10.5946 7.51952 10.3463 7.43551 10.1808 7.26748C9.84975 7.01545 9.43596 6.76341 9.10493 6.51137C8.93941 6.42736 8.85665 6.34335 8.69113 6.25934C8.19458 5.92329 7.78079 5.58724 7.367 5.25119C7.20148 5.08317 7.03596 4.99915 6.87044 4.83113C6.62217 4.66311 6.45665 4.49508 6.20837 4.32706C6.20837 5.25119 6.20837 6.25934 6.20837 7.18347V10.2919C6.20837 10.544 6.45665 10.628 6.62217 10.712C7.11872 11.048 7.61527 11.4681 8.11182 11.8041C9.10493 12.4762 10.098 13.1483 11.0911 13.9044H11.2566V7.85557C11.0911 7.68755 10.9256 7.60353 10.7601 7.43551V7.68755Z" fill="#25408F"/>
<path d="M17.2153 10.628C17.298 10.628 17.3808 10.4599 17.5463 10.3759C17.5463 9.4518 17.5463 8.44366 17.5463 7.51952V7.18347C17.5463 6.25934 17.5463 5.25119 17.5463 4.32706C17.3808 4.41107 17.2153 4.49508 17.0498 4.66311C16.8842 4.74712 16.8015 4.83113 16.636 4.91514C16.0567 5.3352 15.4774 5.75526 14.9808 6.17533C14.8153 6.25934 14.6498 6.42736 14.4842 6.51137C14.1532 6.76341 13.8222 7.01545 13.4911 7.26748C13.3256 7.3515 13.2429 7.43551 13.0774 7.60353C12.8291 7.77156 12.6636 7.93958 12.4153 8.10761C12.4153 8.44366 12.4153 8.69569 12.4153 9.03174V14.2405C13.8222 13.2324 15.2291 12.2242 16.636 11.2161C16.8015 11.048 17.0498 10.88 17.2153 10.796V10.628Z" fill="#25408F"/>
<path d="M23.3394 15.8367V14.6606C23.3394 12.3922 23.3394 10.0399 23.3394 7.77156C23.3394 7.26748 23.2566 6.84742 22.9256 6.51137C22.6773 6.34335 22.429 6.17532 22.098 6.17532C21.8497 6.17532 21.6842 6.34335 21.4359 6.42736C21.0221 6.76341 20.7738 7.3515 20.7738 7.85557C20.7738 9.28378 20.7738 10.796 20.7738 12.2242C20.7738 12.8123 20.7738 13.4004 20.7738 13.9885C20.7738 14.2405 20.6083 14.4925 20.5256 14.6606C20.1945 15.0806 19.7807 15.5007 19.4497 15.8367C19.367 15.9207 19.2842 16.0048 19.1187 16.1728C18.4566 16.8449 17.8773 17.601 17.2152 18.2731C17.0497 18.4411 16.7187 18.5251 16.4704 18.4411C16.2221 18.2731 16.3876 18.021 16.4704 17.853C16.967 17.2649 17.4635 16.6769 17.9601 16.1728C18.0428 16.0888 18.1256 16.0048 18.2083 15.8367C18.5394 15.4167 18.8704 15.0806 19.2014 14.6606C19.2842 14.4925 19.367 14.2405 19.4497 13.9885C19.4497 13.3164 18.9532 12.8123 18.2911 12.7283C17.8773 12.7283 17.4635 12.8963 17.2152 13.1483C16.8842 13.4844 16.6359 13.8204 16.3876 14.1565C16.2221 14.3245 16.0566 14.5765 15.8911 14.7446C15.5601 15.1646 15.229 15.5007 14.9807 15.8367C14.898 15.9207 14.8152 16.0888 14.6497 16.2568C14.1532 16.8449 13.6566 17.433 13.1601 18.021V18.1051C13.1601 18.1051 13.1601 18.2731 13.0773 18.2731C13.0773 18.4411 12.9945 18.6091 12.9118 18.7772C12.829 19.1972 12.9118 19.7013 12.9118 20.2054V24.1539C12.9118 24.742 12.9118 25.3301 12.9118 25.9182C13.7394 25.9182 14.4842 25.9182 15.3118 25.9182C16.6359 25.9182 17.9601 25.9182 19.2842 25.9182C19.2842 25.2461 19.2842 24.658 19.2842 23.9859C19.2842 23.6499 19.367 23.2298 19.5325 22.9778C19.7807 22.5577 20.1118 22.1376 20.3601 21.8016C20.4428 21.7176 20.5256 21.6336 20.6083 21.4655C20.7738 21.2975 20.9394 21.0455 21.0221 20.8775C21.1049 20.7935 21.1876 20.6254 21.2704 20.5414C21.767 19.9533 22.1807 19.2812 22.6773 18.6931C22.7601 18.5251 22.8428 18.4411 23.0083 18.2731C23.4221 17.601 23.5049 16.8449 23.4221 16.1728V15.8367H23.3394Z" fill="#25408F"/>
<path d="M10.9256 18.7772C10.9256 18.5251 10.7601 18.2731 10.5946 18.021C10.098 17.433 9.60147 16.7609 9.10492 16.1728C9.02216 16.0888 8.9394 16.0048 8.85664 15.9207C8.52561 15.5847 8.27733 15.1646 7.9463 14.8286C7.78078 14.6606 7.61526 14.4925 7.5325 14.3245C7.36699 14.1565 7.28423 13.9885 7.11871 13.9044C6.70492 13.4844 6.37388 12.8963 5.71181 12.8123C5.04975 12.7283 4.38768 13.2323 4.30492 13.9044C4.30492 14.0725 4.30492 14.2405 4.30492 14.4085C4.30492 14.5765 4.47044 14.7446 4.55319 14.8286C5.38078 15.8367 6.29112 16.8449 7.20147 17.853C7.36699 18.021 7.28423 18.1891 7.28423 18.3571C6.95319 18.6091 6.5394 18.3571 6.29113 18.1051C5.29802 17.0129 4.22216 15.9207 3.22906 14.7446C3.22906 14.7446 3.22906 14.7446 3.22906 14.6606C3.1463 14.4085 2.98078 14.1565 2.98078 13.9044C2.98078 13.2323 2.98078 12.5602 2.98078 11.8882V7.68754C2.98078 7.26748 2.81526 6.76341 2.48423 6.42736C2.15319 6.09131 1.65664 5.92328 1.16009 6.09131C0.746298 6.25933 0.498022 6.59538 0.415263 7.01544C0.415263 7.09945 0.415263 7.26748 0.415263 7.35149C0.415263 8.44365 0.415263 9.61982 0.415263 10.712V14.6606C0.415263 15.7527 0.249746 16.8449 0.663539 17.853C0.829056 18.2731 1.07733 18.6091 1.32561 18.8612C1.7394 19.3652 2.15319 19.9533 2.64975 20.5414C2.64975 20.6254 2.81526 20.7094 2.89802 20.8775C3.06354 21.0455 3.1463 21.2135 3.31181 21.3815C3.39457 21.5496 3.47733 21.6336 3.64285 21.8016C4.05664 22.3057 4.55319 22.8097 4.71871 23.4818C4.71871 23.7339 4.80147 23.9859 4.80147 24.322V26.0022C6.95319 26.0022 9.02216 26.0022 11.1739 26.0022C11.1739 26.0022 11.1739 25.8342 11.1739 25.7502V20.2054C11.1739 19.7013 11.1739 19.1972 11.1739 18.6931L10.9256 18.7772Z" fill="#25408F"/>
</svg>
