<svg width="13" height="26" viewBox="0 0 13 26" fill="none" xmlns="http://www.w3.org/2000/svg">
<path d="M6.00835 0.28479C5.5118 1.20892 5.098 2.13306 4.68421 3.0572C4.93249 3.22522 5.18076 3.39324 5.34628 3.56127C5.67731 3.72929 5.92559 3.98133 6.17387 4.23337L5.92559 4.56941C4.93249 5.99762 4.02214 7.42583 2.94628 8.77002C3.60835 7.34182 4.18766 5.8296 4.93249 4.40139C5.098 3.98133 4.60145 3.8133 4.35318 3.64528C4.18766 3.47725 3.60835 3.39325 3.85662 2.97319C4.18766 2.04905 4.60145 1.20892 4.93249 0.28479H0.794556C0.794556 1.37695 0.794556 2.46911 0.960073 3.56127C0.960073 3.89732 0.960073 4.14935 1.04283 4.4854C1.37387 7.00577 1.87042 9.61015 3.19456 11.8785C3.69111 12.6346 4.27042 13.3067 4.93249 13.8948C5.26352 14.0628 5.59456 14.2308 5.92559 14.3148C5.92559 14.3148 6.17387 14.3148 6.17387 14.3988C6.17387 17.4233 6.17387 20.4477 6.17387 23.5562H6.00835C4.93249 23.8082 3.93938 24.1443 2.94628 24.3963C2.36697 24.7324 1.53938 24.9004 1.20835 25.5725C4.93249 25.5725 8.65662 25.5725 12.4635 25.5725C11.8842 24.8164 10.8911 24.5643 10.0635 24.2283C9.23594 23.9762 8.32559 23.7242 7.41525 23.5562V14.3988C7.9118 14.2308 8.40835 13.9788 8.9049 13.7267C9.56697 13.1387 10.1463 12.4666 10.5601 11.7105C10.5601 11.6264 10.7256 11.3744 10.8083 11.2904C11.4704 10.0302 11.8015 8.77002 12.1325 7.42583C12.1325 7.42583 12.1325 7.25781 12.1325 7.1738C12.298 6.33367 12.4635 5.40953 12.5463 4.56941C12.5463 4.23336 12.629 3.81331 12.629 3.47726C12.7118 2.46911 12.7118 1.46096 12.7118 0.368801H5.92559L6.00835 0.28479Z" fill="#25408F"/>
</svg>
