<svg width="23" height="29" viewBox="0 0 23 29" fill="none" xmlns="http://www.w3.org/2000/svg">
<path d="M21.3532 13.8454C21.1877 13.6774 21.105 13.5094 20.9394 13.2573C20.2774 12.5852 19.6153 11.9131 18.8705 11.325C17.5463 10.3169 15.9739 9.64479 14.3187 9.22473C13.6567 9.0567 12.9946 9.0567 12.3325 8.97269C12.3325 8.55263 12.3325 8.21658 12.2498 7.79652C12.167 7.46047 11.7532 7.46047 11.505 7.62849C11.2567 8.04856 11.3394 8.46862 11.3394 8.97269C11.2567 8.97269 11.0084 8.97269 10.8429 8.97269C9.68426 9.14072 8.44288 9.39275 7.36702 9.81281C5.62909 10.5689 3.97392 11.7451 2.73254 13.1733C2.56702 13.3413 2.40151 13.5934 2.23599 13.8454C1.57392 14.6855 1.07737 15.6097 0.663574 16.5338C1.24288 16.0297 1.90495 15.5256 2.73254 15.5256C4.05668 15.2736 5.38082 16.0297 6.04288 17.2059C7.03599 15.2736 9.93254 14.8535 11.2567 16.5338C11.3394 17.878 11.2567 19.3062 11.2567 20.6504C11.2567 22.1626 11.2567 23.7588 11.2567 25.2711C11.2567 25.8591 11.2567 26.4472 10.9256 26.9513C10.2636 28.1275 8.36013 28.1275 7.69806 26.9513C7.36702 26.5312 7.36702 25.9432 7.28426 25.4391C7.11875 25.019 6.53944 25.187 6.37392 25.5231C6.37392 26.4472 6.70495 27.4554 7.44978 28.0435C8.69116 29.0516 10.7601 28.8836 11.6705 27.5394C12.4153 26.6153 12.2498 25.4391 12.2498 24.3469V16.3658C12.9946 15.6937 13.9877 15.1896 14.9808 15.3576C16.0567 15.4416 16.967 16.1137 17.4636 17.0379C17.9601 16.1977 18.705 15.5256 19.6153 15.3576C20.7739 15.1056 21.9325 15.5256 22.7601 16.2818C22.3463 15.3576 21.8498 14.4335 21.1877 13.5934L21.3532 13.8454Z" fill="#25408F"/>
<path d="M13.6567 3.67992C14.4015 3.84795 14.8981 3.09184 14.8153 2.41974C14.8153 1.99968 14.8153 1.57962 14.8153 1.15955C14.7326 0.99153 14.8153 0.57147 14.6498 0.487457C14.4015 0.655482 14.1532 0.907518 13.8222 1.15955C13.4912 1.4956 13.1601 1.91567 12.8291 2.33573C12.8291 2.92381 13.0774 3.5119 13.6567 3.59591V3.67992Z" fill="#25408F"/>
<path d="M19.2015 3.67992C19.8636 3.67992 20.2774 3.00782 20.1946 2.33572C20.1946 1.91566 20.1946 1.4956 20.1946 1.07554C20.1946 0.907515 20.1946 0.571467 20.1946 0.403442C19.8636 0.655479 19.6153 0.907514 19.367 1.15955C19.036 1.4956 18.7049 1.91566 18.3739 2.33572C18.3739 2.92381 18.7049 3.67992 19.367 3.67992H19.2015Z" fill="#25408F"/>
<path d="M7.20146 3.59589C7.69801 4.01595 8.36008 3.76391 8.60836 3.25984C8.77387 2.41972 8.69112 1.57959 8.60836 0.739471H8.44284C8.36008 0.739471 8.1118 0.991508 8.02905 1.15953C7.61525 1.57959 7.20146 1.99965 6.87043 2.41972C6.78767 2.83978 6.87043 3.42786 7.20146 3.6799V3.59589Z" fill="#25408F"/>
<path d="M15.2291 7.29244C15.8084 7.62849 16.5533 7.12442 16.5533 6.53633C16.636 5.78022 16.5533 4.9401 16.4705 4.18399C15.8912 4.68806 15.3119 5.19214 14.8153 5.86423C14.4015 6.2843 14.6498 7.12442 15.2291 7.37645V7.29244Z" fill="#25408F"/>
<path d="M10.5946 7.12443C10.9256 6.28431 10.6773 5.36017 10.6773 4.52005H10.5118C9.93251 5.10814 9.18768 5.61221 8.85665 6.36832C8.52561 7.37647 10.098 8.04857 10.5946 7.12443Z" fill="#25408F"/>
<path d="M4.96697 8.72064C5.21524 7.79651 5.04972 6.87237 4.96697 5.86423C4.22214 6.62034 2.73248 7.46046 3.22903 8.72064C3.72559 9.22471 4.47041 9.22471 4.88421 8.72064H4.96697Z" fill="#25408F"/>
<path d="M19.036 7.79651C18.705 8.21657 19.036 8.63663 19.036 9.0567C19.5326 9.22472 20.0291 9.22472 20.5257 9.0567C20.9395 8.13256 20.6912 7.0404 20.6912 6.03226C20.0291 6.53633 19.4498 7.0404 18.9533 7.7125L19.036 7.79651Z" fill="#25408F"/>
</svg>
