<svg width="23" height="27" viewBox="0 0 23 27" fill="none" xmlns="http://www.w3.org/2000/svg">
<path d="M13.3256 16.6C13.3256 16.6 13.9049 11.3912 8.44286 7.44263C2.98079 3.57807 2.23596 0.889679 2.23596 0.889679C2.23596 0.889679 0.911823 6.43449 7.367 9.62695C13.7394 12.8194 13.3256 16.6 13.3256 16.6Z" fill="#00AEEF"/>
<path d="M18.7049 17.5241C18.5394 17.104 18.0428 16.1799 17.298 15.7599C15.7256 14.9197 14.4842 15.5918 14.4014 15.5918C14.4014 16.852 13.0773 18.0282 13.0773 18.0282C13.0773 18.0282 12.9118 13.6595 8.52558 11.4752C4.22213 9.29091 1.0773 6.09845 1.0773 6.09845C1.0773 6.09845 0.249718 10.2991 1.24282 12.7354C2.73248 16.516 6.20834 15.3398 6.45661 20.0445C6.62213 24.7492 1.90489 26.5134 1.90489 26.5134C1.90489 26.5134 7.86351 28.6977 14.898 20.8006C16.0566 19.5404 16.8842 19.3724 17.629 19.2884C18.3739 19.2044 19.1187 19.2884 19.1187 19.2884C19.1187 19.2884 19.4497 18.5323 18.7876 18.1962C18.7876 18.1962 18.7876 18.0282 18.7876 17.5241H18.7049Z" fill="#25408F"/>
<path d="M22.8429 21.1366V18.7843C22.7601 18.7843 22.6774 18.5323 22.5118 18.3642L20.8567 20.5486L22.8429 21.1366ZM20.4429 20.8846L22.4291 18.3642C22.3463 18.3642 22.1808 18.3642 21.9325 18.3642L19.6153 19.2043C19.6153 19.5404 19.4498 19.7084 19.4498 19.7084C19.4498 19.7084 19.036 19.7084 18.3739 19.7084L17.3808 20.0445L16.636 20.2965L20.4429 20.8846ZM19.8636 20.9686L16.5532 20.3805V23.909C16.636 23.909 16.7187 24.1611 16.8843 24.3291L19.8636 21.0526V20.9686ZM19.9463 21.0526L16.967 24.4971C17.0498 24.4971 17.2153 24.4971 17.3808 24.4971C18.1256 24.2451 22.7601 21.4727 22.7601 21.4727L20.6912 20.7166L20.3601 21.1366H19.8636L19.9463 21.0526Z" fill="#00AEEF"/>
</svg>
