<svg width="273" height="162" viewBox="0 0 273 162" fill="none" xmlns="http://www.w3.org/2000/svg">
<path d="M206.989 91.0255C206.989 91.0255 209.869 66.0942 183.262 47.5284C156.655 28.9626 152.976 16.1787 152.976 16.1787C152.976 16.1787 146.418 42.4891 178.09 57.8722C209.016 72.9371 206.989 91.0255 206.989 91.0255Z" fill="#00AEEF"/>
<path d="M233.276 95.2694C232.583 93.2006 230.29 88.8509 226.451 86.7821C218.933 82.7507 212.695 86.0925 212.375 86.0395C212.375 92.1397 205.976 97.7625 205.976 97.7625C205.976 97.7625 204.963 76.8096 183.795 66.3067C162.627 55.8037 147.591 40.6328 147.591 40.6328C147.591 40.6328 143.378 60.6309 148.39 72.1947C155.642 90.124 172.598 84.7664 173.611 107.151C174.624 129.59 151.483 137.865 151.483 137.865C151.483 137.865 180.596 148.155 214.881 110.759C220.533 104.605 224.692 103.969 227.998 103.544C231.304 103.12 235.143 103.438 235.143 103.438C235.143 103.438 236.902 99.7782 233.596 98.2929C233.543 98.2929 233.97 97.3381 233.223 95.2694H233.276Z" fill="white"/>
<path d="M253.271 112.827L252.845 101.688C252.845 101.688 252.258 100.361 251.565 99.6188L243.727 109.963L253.325 112.827H253.271ZM241.701 111.289L251.245 99.3536C250.712 99.0884 249.966 98.9823 249.006 99.3536C248.952 99.3536 248.846 99.3536 248.793 99.4067L237.649 103.332C237.329 104.764 236.849 105.719 236.849 105.719C236.849 105.719 234.716 105.56 231.677 105.454L226.611 107.257L223.039 108.53L241.701 111.342V111.289ZM238.768 112.031L222.666 109.061L223.092 125.876C223.092 125.876 223.305 126.99 224.052 127.786L238.715 112.031H238.768ZM239.248 112.084L224.852 128.316C225.385 128.582 226.078 128.635 226.985 128.316C227.038 128.316 227.144 128.316 227.198 128.263C230.877 126.937 253.378 113.835 253.378 113.835V113.517L243.514 110.281L241.754 112.403L239.248 112.084Z" fill="#00AEEF"/>
<path d="M27.3533 103.863C26.3402 103.863 25.4338 104.234 24.5807 104.924C23.7275 105.613 23.1943 106.462 22.981 107.47L19.5152 123.755H25.967L27.0334 118.715H36.951C38.8705 118.715 40.5234 118.079 41.9631 116.753C43.2428 115.586 44.2025 113.623 44.7891 110.812C45.1623 109.167 44.949 107.523 44.2559 105.984C43.4027 104.552 42.0164 103.863 40.0435 103.863H27.2467H27.3533ZM28.0998 113.676L28.8463 110.175C28.8996 109.91 29.1129 109.592 29.4328 109.326C29.7527 109.061 30.126 108.902 30.4992 108.902H36.791C37.8041 108.902 38.3373 109.114 38.4973 109.592C38.5506 110.016 38.4973 110.546 38.4439 111.13C38.284 111.766 38.0707 112.35 37.8041 112.88C37.4309 113.411 36.791 113.676 35.7779 113.676H28.0998ZM45.7488 123.755H52.2006L56.4662 103.863H50.0145L45.7488 123.755ZM70.7027 116.116H73.6887C73.6353 116.487 73.3687 117.018 72.8889 117.654C72.3557 118.344 71.5559 118.662 70.5428 118.662H66.0105C64.9975 118.662 64.4109 118.291 64.1443 117.495C63.9844 116.7 64.0377 115.798 64.251 114.684L64.6775 112.827C64.8908 111.713 65.2641 110.812 65.7439 110.016C66.2238 109.22 67.0236 108.849 68.09 108.849H79.074L80.1404 103.81H66.3838C64.6775 103.81 63.0779 104.393 61.585 105.613C60.092 106.833 59.1855 108.265 58.8123 110.016L57.2127 117.495C56.8395 119.193 57.1594 120.678 58.1191 121.845C59.0789 123.065 60.4119 123.648 62.1182 123.648H72.3023C74.0086 123.648 75.6082 123.065 77.1012 121.845C78.5408 120.731 79.4473 119.352 79.8205 117.76L81.1002 111.872H71.6625L70.756 116.063L70.7027 116.116ZM82.2199 123.755H101.149L102.215 118.715H89.7381L90.3246 115.851H99.9756L100.829 111.766H91.1777L91.4977 110.281C91.551 109.91 91.7643 109.591 92.1375 109.273C92.4574 109.008 92.8307 108.849 93.2039 108.849H104.295L105.361 103.81H90.0047C88.9916 103.81 88.0852 104.181 87.232 104.87C86.3789 105.56 85.8457 106.409 85.6324 107.417L82.1666 123.702L82.2199 123.755ZM115.225 103.863C113.519 103.863 111.919 104.446 110.426 105.666C108.933 106.886 108.027 108.318 107.654 110.069L106.054 117.548C105.681 119.246 106.001 120.731 106.907 121.898C107.867 123.118 109.2 123.702 110.906 123.702H121.09C122.797 123.702 124.396 123.118 125.889 121.898C127.382 120.678 128.289 119.246 128.662 117.548L130.262 110.069C130.635 108.371 130.315 106.886 129.355 105.666C128.395 104.446 127.062 103.863 125.356 103.863H115.172H115.225ZM122.85 114.737C122.637 115.798 122.263 116.753 121.784 117.548C121.197 118.344 120.451 118.715 119.437 118.715H114.905C113.892 118.715 113.306 118.344 113.039 117.548C112.879 116.753 112.932 115.851 113.146 114.737L113.572 112.88C113.786 111.766 114.159 110.865 114.639 110.069C115.225 109.273 115.972 108.902 116.985 108.902H121.517C122.53 108.902 123.117 109.273 123.383 110.069C123.543 110.865 123.49 111.766 123.277 112.88L122.85 114.737ZM141.565 103.863C139.859 103.863 138.26 104.446 136.767 105.666C135.274 106.886 134.367 108.318 133.994 110.069L131.061 123.755H137.513L139.859 112.88C140.072 111.766 140.446 110.865 140.926 110.069C141.512 109.273 142.259 108.902 143.272 108.902H147.804C148.817 108.902 149.404 109.273 149.67 110.069C149.777 110.865 149.777 111.766 149.51 112.88L147.164 123.755H153.616L156.548 110.069C156.922 108.371 156.602 106.886 155.642 105.666C154.682 104.446 153.349 103.863 151.643 103.863H141.459H141.565Z" fill="white"/>
<path d="M82.4865 139.032V139.403C82.2732 140.039 82.06 140.57 81.74 140.941C81.4201 141.312 81.0469 141.631 80.6203 141.79C80.1937 141.949 79.7139 142.108 79.234 142.161C78.7541 142.161 78.1676 142.214 77.4744 142.214C76.0348 142.214 75.075 142.002 74.4885 141.631C73.9019 141.259 73.6353 140.623 73.6353 139.668C73.6353 138.713 73.742 138.183 74.0086 137.016C74.2219 135.902 74.4885 135.053 74.7551 134.417C75.0217 133.78 75.3949 133.25 75.7682 132.878C76.1947 132.507 76.6746 132.242 77.3144 132.083C77.901 131.923 78.7008 131.87 79.6605 131.87C80.6203 131.87 81.9533 132.03 82.4865 132.348C83.0197 132.666 83.3396 133.303 83.3396 134.257C83.3396 135.212 83.233 135.478 83.073 136.379L82.8598 137.387H75.5549C75.3416 138.448 75.1816 139.191 75.1816 139.615C75.1816 140.039 75.3416 140.57 75.7148 140.729C76.0881 140.888 76.7279 140.994 77.741 140.994C78.7541 140.994 78.8074 140.994 79.1273 140.994C79.4473 140.994 79.7672 140.888 79.9805 140.782C80.1937 140.676 80.407 140.517 80.5137 140.305C80.6736 140.092 80.7803 139.827 80.8336 139.456V139.085H82.4865V139.032ZM81.5267 136.167C81.6867 135.371 81.74 134.788 81.74 134.417C81.74 133.886 81.5801 133.515 81.2601 133.356C80.9402 133.197 80.3537 133.144 79.3939 133.144C78.4342 133.144 78.1676 133.144 77.741 133.303C77.3144 133.409 76.9945 133.568 76.7812 133.78C76.568 133.992 76.3547 134.311 76.248 134.629C76.0881 135 75.9281 135.478 75.7682 136.167H81.4734H81.5267ZM89.6314 136.804L92.1375 142.055H90.3246L88.565 137.971L85.0459 142.055H83.233L88.0318 136.804L85.7924 131.977H87.4986L89.0449 135.69L92.1375 131.977H93.8971L89.6314 136.804ZM98.3226 133.356C97.8961 133.515 97.5762 133.727 97.3096 134.045C97.0963 134.364 96.883 134.735 96.723 135.159C96.5631 135.584 96.4564 136.22 96.2432 137.016C96.0299 137.971 95.9232 138.66 95.9232 139.085C95.9232 139.509 96.0832 140.145 96.4564 140.464C96.8297 140.782 97.4162 140.941 98.2693 140.941C99.1225 140.941 99.3891 140.888 99.7623 140.782C100.136 140.676 100.455 140.464 100.722 140.199C100.989 139.933 101.202 139.509 101.362 139.032C101.522 138.554 101.735 137.865 101.895 137.016C102.108 135.902 102.268 135.106 102.268 134.682C102.268 134.257 102.108 133.674 101.735 133.462C101.415 133.25 100.775 133.09 99.9223 133.09C99.0691 133.09 98.6426 133.144 98.216 133.356H98.3226ZM97.0963 133.197C97.4695 132.719 98.0027 132.348 98.5892 132.136C99.1758 131.923 99.8689 131.817 100.669 131.817C101.842 131.817 102.695 132.03 103.175 132.454C103.655 132.878 103.921 133.515 103.921 134.364C103.921 135.212 103.815 135.796 103.548 136.963C103.335 137.971 103.068 138.819 102.802 139.456C102.535 140.092 102.215 140.623 101.788 140.994C101.415 141.366 100.935 141.684 100.402 141.843C99.8689 142.002 99.2291 142.108 98.4826 142.108C97.7361 142.108 97.7894 142.108 97.5228 142.108C97.2029 142.108 96.9363 142.002 96.6697 141.949C96.4031 141.843 96.1365 141.737 95.9232 141.578C95.7099 141.419 95.55 141.153 95.4967 140.888L94.3236 146.458H92.7773L95.8699 131.977H97.4162L97.1496 133.197H97.0963ZM108.667 131.977L108.294 133.25C108.667 132.772 109.093 132.401 109.68 132.189C110.213 131.977 110.853 131.87 111.493 131.87C113.039 131.87 113.786 132.507 113.786 133.78C113.786 135.053 113.786 134.417 113.679 134.735L113.519 135.477H112.079L112.239 134.788C112.239 134.523 112.293 134.311 112.293 134.098C112.293 133.727 112.186 133.462 111.973 133.303C111.759 133.144 111.386 133.09 110.853 133.09C109.946 133.09 109.253 133.303 108.773 133.727C108.294 134.151 107.974 134.841 107.814 135.743L106.481 142.055H104.934L107.12 131.977H108.613H108.667ZM123.383 139.032V139.403C123.17 140.039 122.957 140.57 122.637 140.941C122.317 141.312 121.944 141.631 121.517 141.79C121.09 141.949 120.611 142.108 120.131 142.161C119.651 142.161 119.064 142.214 118.371 142.214C116.931 142.214 115.972 142.002 115.385 141.631C114.799 141.259 114.532 140.623 114.532 139.668C114.532 138.713 114.639 138.183 114.905 137.016C115.119 135.902 115.385 135.053 115.652 134.417C115.918 133.78 116.292 133.25 116.665 132.878C117.091 132.507 117.571 132.242 118.211 132.083C118.798 131.923 119.597 131.87 120.557 131.87C121.517 131.87 122.85 132.03 123.383 132.348C123.916 132.666 124.236 133.303 124.236 134.257C124.236 135.212 124.13 135.478 123.97 136.379L123.756 137.387H116.452C116.238 138.448 116.078 139.191 116.078 139.615C116.078 140.039 116.238 140.57 116.612 140.729C116.985 140.888 117.625 140.994 118.638 140.994C119.651 140.994 119.704 140.994 120.024 140.994C120.344 140.994 120.664 140.888 120.877 140.782C121.09 140.676 121.304 140.517 121.41 140.305C121.57 140.092 121.677 139.827 121.73 139.456V139.085H123.383V139.032ZM122.423 136.167C122.583 135.371 122.637 134.788 122.637 134.417C122.637 133.886 122.477 133.515 122.157 133.356C121.837 133.197 121.25 133.144 120.291 133.144C119.331 133.144 119.064 133.144 118.638 133.303C118.211 133.409 117.891 133.568 117.678 133.78C117.465 133.992 117.251 134.311 117.145 134.629C116.985 135 116.825 135.478 116.665 136.167H122.37H122.423ZM135.06 134.629H133.461V134.257C133.567 134.151 133.567 134.045 133.567 133.939C133.567 133.621 133.407 133.409 133.087 133.356C132.768 133.303 132.181 133.25 131.381 133.25C130.581 133.25 129.515 133.303 129.088 133.462C128.662 133.568 128.395 133.939 128.289 134.523C128.235 134.894 128.182 135.212 128.182 135.424C128.182 135.796 128.289 136.008 128.502 136.114C128.715 136.22 129.088 136.273 129.675 136.273C129.675 136.273 129.835 136.273 130.048 136.273C130.315 136.273 130.635 136.273 131.008 136.273C131.595 136.273 132.074 136.326 132.448 136.379C132.821 136.379 133.141 136.485 133.461 136.644C133.781 136.751 133.994 136.963 134.207 137.228C134.367 137.493 134.474 137.865 134.474 138.289C134.474 138.713 134.474 138.925 134.367 139.297C134.207 139.986 133.994 140.517 133.674 140.941C133.354 141.366 133.034 141.631 132.608 141.843C132.181 142.055 131.754 142.161 131.275 142.214C130.795 142.214 130.208 142.267 129.515 142.267C128.822 142.267 128.342 142.267 127.915 142.267C127.489 142.267 127.062 142.161 126.689 142.055C126.316 141.949 125.996 141.737 125.783 141.525C125.569 141.259 125.463 140.941 125.463 140.517C125.463 140.092 125.463 140.145 125.516 139.986L125.729 139.032H127.329L127.169 139.827C127.169 139.933 127.169 140.039 127.169 140.145C127.169 140.464 127.382 140.729 127.755 140.835C128.129 140.941 128.822 140.994 129.888 140.994H130.581C131.168 140.994 131.701 140.888 132.074 140.676C132.448 140.464 132.714 140.039 132.874 139.403C132.928 139.085 132.981 138.872 132.981 138.66C132.981 138.289 132.874 138.024 132.661 137.971C132.448 137.865 132.021 137.811 131.435 137.811C131.061 137.811 130.795 137.811 130.635 137.811C130.475 137.811 130.262 137.811 129.942 137.811C129.355 137.811 128.929 137.758 128.609 137.705C128.289 137.705 127.969 137.599 127.649 137.44C127.329 137.334 127.116 137.122 126.956 136.857C126.796 136.591 126.689 136.273 126.689 135.849C126.689 135.424 126.689 135.318 126.796 135C126.956 134.311 127.169 133.727 127.436 133.303C127.702 132.878 128.075 132.613 128.449 132.401C128.875 132.189 129.302 132.083 129.782 132.03C130.262 131.977 130.955 131.977 131.808 131.977C132.661 131.977 132.768 131.977 133.141 131.977C133.514 131.977 133.887 132.083 134.207 132.189C134.527 132.295 134.794 132.454 135.007 132.719C135.22 132.984 135.327 133.303 135.327 133.674C135.327 134.045 135.327 134.098 135.274 134.311V134.682H135.22L135.06 134.629ZM145.831 134.629H144.231V134.257C144.338 134.151 144.338 134.045 144.338 133.939C144.338 133.621 144.178 133.409 143.858 133.356C143.538 133.303 142.952 133.25 142.152 133.25C141.352 133.25 140.286 133.303 139.859 133.462C139.433 133.568 139.166 133.939 139.059 134.523C139.006 134.894 138.953 135.212 138.953 135.424C138.953 135.796 139.059 136.008 139.273 136.114C139.486 136.22 139.859 136.273 140.446 136.273C140.446 136.273 140.606 136.273 140.819 136.273C141.086 136.273 141.405 136.273 141.832 136.273C142.419 136.273 142.898 136.326 143.272 136.379C143.645 136.379 143.965 136.485 144.285 136.644C144.605 136.751 144.818 136.963 145.031 137.228C145.191 137.493 145.298 137.865 145.298 138.289C145.298 138.713 145.298 138.925 145.191 139.297C145.031 139.986 144.818 140.517 144.498 140.941C144.178 141.366 143.858 141.631 143.432 141.843C143.005 142.055 142.579 142.161 142.099 142.214C141.619 142.214 141.032 142.267 140.339 142.267C139.646 142.267 139.166 142.267 138.739 142.267C138.313 142.267 137.886 142.161 137.513 142.055C137.14 141.949 136.82 141.737 136.607 141.525C136.393 141.259 136.287 140.941 136.287 140.517C136.287 140.092 136.287 140.145 136.34 139.986L136.553 139.032H138.153L137.993 139.827C137.993 139.933 137.993 140.039 137.993 140.145C137.993 140.464 138.206 140.729 138.579 140.835C138.953 140.941 139.646 140.994 140.712 140.994H141.405C141.992 140.994 142.525 140.888 142.898 140.676C143.272 140.464 143.538 140.039 143.698 139.403C143.752 139.085 143.805 138.872 143.805 138.66C143.805 138.289 143.698 138.024 143.485 137.971C143.272 137.865 142.845 137.811 142.259 137.811C141.885 137.811 141.619 137.811 141.459 137.811C141.299 137.811 141.086 137.811 140.766 137.811C140.179 137.811 139.753 137.758 139.433 137.705C139.113 137.705 138.793 137.599 138.473 137.44C138.153 137.334 137.94 137.122 137.78 136.857C137.62 136.591 137.513 136.273 137.513 135.849C137.513 135.424 137.513 135.318 137.62 135C137.78 134.311 137.993 133.727 138.26 133.303C138.526 132.878 138.899 132.613 139.273 132.401C139.699 132.189 140.126 132.083 140.606 132.03C141.086 131.977 141.779 131.977 142.632 131.977C143.485 131.977 143.592 131.977 143.965 131.977C144.338 131.977 144.711 132.083 145.031 132.189C145.351 132.295 145.618 132.454 145.831 132.719C146.044 132.984 146.151 133.303 146.151 133.674C146.151 134.045 146.151 134.098 146.098 134.311V134.682H146.044L145.831 134.629Z" fill="#00AEEF"/>
<path d="M27.2467 98.8229H31.4057C32.2588 98.8229 32.8986 98.6108 33.3252 98.1864C33.7518 97.762 34.125 97.0725 34.3383 96.1707C34.3383 96.0116 34.4449 95.7994 34.4449 95.6402C34.4449 95.4811 34.4449 95.322 34.4449 95.1628C34.4449 94.8446 34.3916 94.6324 34.2317 94.4202C34.0717 94.2611 33.8584 94.1019 33.5385 94.0489C34.0717 93.8897 34.4449 93.6245 34.6582 93.2532C34.8715 92.8819 35.0848 92.4045 35.1914 91.874C35.1914 91.6618 35.2981 91.5027 35.2981 91.3436C35.2981 91.1844 35.2981 91.0253 35.2981 90.8662C35.2981 90.3357 35.1381 90.0174 34.8182 89.8053C34.4983 89.6461 34.0717 89.54 33.5385 89.54H29.4861L27.0867 98.8229H27.2467ZM29.1129 97.3907L29.8061 94.7915H31.9922C32.3121 94.7915 32.5787 94.7915 32.7387 94.8976C32.8986 94.9506 33.0053 95.1628 33.0053 95.4281C33.0053 95.6933 33.0053 95.5872 33.0053 95.7463C33.0053 95.8524 33.0053 95.9585 32.8986 96.1176C32.7387 96.7542 32.5254 97.1255 32.2588 97.2316C31.9922 97.3907 31.5656 97.4438 31.0858 97.4438H29.1662L29.1129 97.3907ZM30.1793 93.4654L30.8192 91.0783H33.1119C33.3785 91.0783 33.5918 91.0783 33.6985 91.1844C33.8051 91.2375 33.8584 91.3966 33.8584 91.6088C33.8584 91.821 33.8584 91.7679 33.8584 91.874C33.8584 91.9801 33.8584 92.0862 33.8051 92.1923C33.6451 92.7758 33.4852 93.0941 33.2186 93.2532C33.0053 93.4123 32.632 93.4654 32.1522 93.4654H30.2326H30.1793ZM42.2297 92.3514H40.8967L39.9369 95.9585C39.777 96.542 39.617 96.9664 39.3504 97.2846C39.1371 97.6029 38.7106 97.709 38.1774 97.709C37.6442 97.709 37.6975 97.709 37.5908 97.5499C37.4842 97.4438 37.4309 97.3377 37.4309 97.1255C37.4309 96.9133 37.4309 96.9133 37.4309 96.7542C37.4309 96.6481 37.4842 96.489 37.5375 96.3298L38.5506 92.3514H37.2176L36.0979 96.7011C36.0979 96.8603 35.9912 97.0194 35.9912 97.1785C35.9912 97.3377 35.9912 97.4968 35.9912 97.6029C35.9912 98.0273 36.0979 98.3455 36.3645 98.5577C36.6311 98.7699 36.951 98.876 37.4309 98.876C37.9108 98.876 38.2307 98.8229 38.5506 98.6638C38.8705 98.5047 39.1904 98.1864 39.5104 97.762L39.2438 98.8229H40.5234L42.2297 92.3514ZM46.442 89.5931H45.109L42.7096 98.876H44.0426L46.442 89.5931ZM52.8404 92.3514H51.5608L51.3475 93.3593C51.2408 92.8819 51.0809 92.6167 50.8676 92.5106C50.6543 92.4045 50.3344 92.2984 49.9078 92.2984C48.9481 92.2984 48.2549 92.6167 47.8817 93.2002C47.4551 93.7837 47.1352 94.5793 46.9219 95.5341C46.8686 95.7994 46.8152 96.0646 46.7086 96.3298C46.6553 96.5951 46.602 96.8603 46.5486 97.1255C46.5486 97.1785 46.5486 97.2316 46.5486 97.3377C46.5486 97.3907 46.5486 97.4438 46.5486 97.5499C46.5486 98.0803 46.7086 98.4516 47.0285 98.6638C47.3484 98.876 47.775 98.9821 48.2549 98.9821C48.7348 98.9821 48.9481 98.929 49.268 98.7699C49.5879 98.6638 49.9078 98.3986 50.1211 97.9742L49.7479 99.3534C49.5879 99.8839 49.3746 100.255 49.108 100.414C48.8414 100.573 48.4682 100.626 48.0416 100.626C47.6151 100.626 47.5617 100.626 47.4018 100.52C47.2418 100.467 47.1885 100.308 47.1885 100.043C47.1885 99.7778 47.1885 99.8838 47.1885 99.8308C47.1885 99.7778 47.1885 99.6717 47.2418 99.5656H45.9621C45.9621 99.5656 45.9621 99.5656 45.9621 99.6186C45.9621 99.6717 45.9621 99.7778 45.9621 99.8308C45.9621 99.8838 45.9621 99.9369 45.9621 100.043C45.9621 100.149 45.9621 100.202 45.9621 100.308C45.9621 100.414 45.9621 100.467 45.9621 100.573V100.68C45.9621 100.68 45.9621 100.68 45.9621 100.733C45.9621 100.733 45.9621 100.733 45.9621 100.786C46.0154 101.104 46.1754 101.369 46.442 101.475C46.7086 101.581 46.9752 101.687 47.2951 101.687C47.4018 101.687 47.5084 101.687 47.6151 101.687H47.935C48.8414 101.687 49.5346 101.528 50.0145 101.157C50.4944 100.786 50.8676 100.043 51.1875 98.9821L52.8938 92.3514H52.8404ZM48.2016 95.5341L48.3082 95.1098C48.4682 94.5263 48.6281 94.1019 48.8414 93.8897C49.0547 93.6776 49.4279 93.5715 49.9078 93.5715C50.3877 93.5715 50.5477 93.6245 50.6543 93.7837C50.8143 93.9428 50.8676 94.1019 50.8676 94.3671C50.8676 94.5263 50.8676 94.7385 50.8143 94.9506C50.8143 95.1628 50.7076 95.375 50.6543 95.6402V95.7994L50.601 95.9055V96.0116C50.441 96.542 50.2811 96.9664 50.0678 97.2846C49.8545 97.6029 49.4813 97.762 48.8947 97.762C48.3082 97.762 48.3082 97.709 48.1483 97.6029C47.9883 97.4968 47.935 97.3377 47.935 97.0725C47.935 96.8072 47.935 96.8072 47.935 96.5951C47.935 96.4359 47.9883 96.2237 48.0416 96.0116L48.1483 95.5872L48.2016 95.5341ZM55.8797 94.2611C55.8797 94.2611 55.8797 94.208 55.8797 94.155C55.8797 94.155 55.8797 94.1019 55.8797 94.0489C55.8797 93.9958 55.933 93.9428 55.9863 93.8367C55.9863 93.7836 56.0397 93.7306 56.093 93.6245C56.1463 93.5184 56.2529 93.4654 56.3596 93.4123C56.4662 93.4123 56.5729 93.3062 56.6795 93.3062C56.7861 93.3062 56.8395 93.3062 56.9461 93.3062C57.0527 93.3062 57.1061 93.3062 57.1594 93.3062C57.4793 93.3062 57.7459 93.3062 57.9059 93.4123C58.0658 93.5184 58.1192 93.6776 58.1192 93.8897C58.1192 94.1019 58.1192 94.0489 58.1192 94.208C58.1192 94.3141 58.1192 94.4732 58.0125 94.5793L57.7459 95.5872C57.7459 95.4811 57.6926 95.4281 57.6393 95.322C57.6393 95.2689 57.5326 95.1628 57.4793 95.1098C57.3727 95.0567 57.266 95.0037 57.1594 95.0037C56.9994 95.0037 56.8928 95.0037 56.7861 94.9506C56.6795 94.9506 56.6262 94.9506 56.5729 94.9506H56.3596C55.7197 94.9506 55.1865 95.1098 54.7067 95.375C54.2801 95.6402 53.9602 96.2237 53.7469 97.0194C53.7469 97.1785 53.6936 97.2846 53.6402 97.4438C53.6402 97.5499 53.6402 97.709 53.6402 97.8151C53.6402 98.2925 53.8002 98.6108 54.1201 98.7699C54.4401 98.929 54.8133 98.9821 55.2932 98.9821C55.7731 98.9821 56.0397 98.9821 56.3596 98.876C56.6795 98.7699 56.9994 98.5577 57.3193 98.1334L57.1061 98.929H58.3858L59.5055 94.6854C59.5055 94.4732 59.6121 94.3141 59.6121 94.155C59.6121 93.9958 59.6121 93.8367 59.6121 93.7306C59.6121 93.1471 59.3988 92.7758 59.0256 92.6167C58.599 92.4575 58.1192 92.4045 57.4793 92.4045C56.8395 92.4045 56.2529 92.5106 55.7731 92.6697C55.2932 92.8288 54.9199 93.4123 54.6533 94.3141H55.9863L55.8797 94.2611ZM54.9733 96.8072V96.7542C54.9733 96.7542 54.9733 96.7542 54.9733 96.7011C54.9733 96.595 55.0266 96.489 55.0799 96.4359C55.0799 96.3298 55.1865 96.2768 55.2932 96.2237C55.3465 96.1707 55.4531 96.1176 55.5598 96.1176C55.6664 96.1176 55.7197 96.0646 55.8264 96.0646C55.933 96.0646 55.9863 96.0646 56.093 96.0646C56.1996 96.0646 56.2529 96.0646 56.3596 96.0646H56.5729C56.6262 96.0646 56.7328 96.0646 56.7861 96.0646C56.8928 96.0646 57.0527 96.0646 57.1594 96.1176C57.266 96.1176 57.3727 96.2237 57.4793 96.2768C57.4793 96.2768 57.4793 96.3298 57.5326 96.3829C57.5326 96.3829 57.5326 96.489 57.5326 96.542C57.5326 96.595 57.5326 96.595 57.5326 96.6481C57.5326 96.6481 57.5326 96.7011 57.5326 96.7542C57.5326 96.7542 57.5326 96.7542 57.5326 96.8072C57.5326 96.8072 57.5326 96.8072 57.5326 96.8603C57.5326 96.8603 57.5326 96.8603 57.5326 96.9133C57.5326 96.9133 57.5326 96.9133 57.5326 96.9664C57.426 97.3377 57.266 97.6029 57.0527 97.709C56.8395 97.8151 56.5729 97.9212 56.3063 97.9212C56.2529 97.9212 56.1996 97.9212 56.1463 97.9212H55.9863C55.7197 97.9212 55.5065 97.9212 55.3465 97.8151C55.1865 97.762 55.0799 97.6029 55.0799 97.3377C55.0799 97.0725 55.0799 97.1785 55.0799 97.1255C55.0799 97.0194 55.0799 96.9664 55.1332 96.8603L54.9733 96.8072ZM62.0649 92.3514L60.3586 98.8229H61.6916L62.7047 94.9506C62.7047 94.9506 62.7047 94.9506 62.7047 94.8976C62.7047 94.8976 62.7047 94.8976 62.7047 94.8446C62.7047 94.8446 62.7047 94.8446 62.7047 94.7915C62.7047 94.7915 62.7047 94.7915 62.7047 94.7385C62.8113 94.3672 62.9713 94.0489 63.1846 93.8367C63.3979 93.6245 63.6645 93.4654 63.9844 93.4654C64.3043 93.4654 64.3576 93.4654 64.4109 93.5715C64.5176 93.6245 64.5176 93.7306 64.5176 93.8897C64.5176 94.0489 64.5176 94.1019 64.5176 94.208C64.5176 94.3141 64.4643 94.4202 64.4109 94.5793V94.8446C64.3576 94.8446 65.584 94.8446 65.584 94.8446L65.6906 94.4202C65.744 94.208 65.7973 94.0489 65.7973 93.8367C65.7973 93.6776 65.7973 93.4654 65.7973 93.3593C65.7973 93.041 65.6906 92.7758 65.5307 92.5636C65.3707 92.3514 65.0508 92.2984 64.6242 92.2984C64.1977 92.2984 64.0377 92.3514 63.7178 92.5106C63.4512 92.6697 63.1846 92.9349 62.918 93.2532L63.1846 92.4045H61.9049L62.0649 92.3514Z" fill="#B1B3B6"/>
<path d="M69.2631 92.3516H67.9301L66.2238 98.8231H67.5568L69.2631 92.3516ZM70.0096 89.5933H68.6766L68.3033 90.9194H69.6363L70.0096 89.5933ZM72.249 94.2612C72.249 94.2612 72.249 94.2082 72.249 94.1552C72.249 94.1552 72.249 94.1021 72.249 94.0491C72.249 93.996 72.3023 93.943 72.3557 93.8369C72.3557 93.7838 72.409 93.7308 72.4623 93.6247C72.5156 93.5186 72.6223 93.4656 72.7289 93.4125C72.8355 93.4125 72.9422 93.3064 73.0488 93.3064C73.1555 93.3064 73.2088 93.3064 73.3154 93.3064C73.4221 93.3064 73.4754 93.3064 73.5287 93.3064C73.8486 93.3064 74.1152 93.3064 74.2752 93.4125C74.4351 93.5186 74.4885 93.6777 74.4885 93.8899C74.4885 94.1021 74.4885 94.0491 74.4885 94.2082C74.4885 94.3143 74.4885 94.4734 74.3818 94.5795L74.1152 95.5874C74.1152 95.4813 74.0619 95.4282 74.0086 95.3221C74.0086 95.2691 73.9019 95.163 73.8486 95.11C73.742 95.0569 73.6353 95.0039 73.5287 95.0039C73.3687 95.0039 73.2621 95.0039 73.1555 94.9508C73.0488 94.9508 72.9955 94.9508 72.9422 94.9508H72.7289C72.089 94.9508 71.5559 95.11 71.076 95.3752C70.6494 95.6404 70.3295 96.2239 70.1162 97.0196C70.1162 97.1787 70.0629 97.2848 70.0096 97.444C70.0096 97.55 70.0096 97.7092 70.0096 97.8153C70.0096 98.2927 70.1695 98.6109 70.4894 98.7701C70.8094 98.9292 71.1826 98.9823 71.6625 98.9823C72.1424 98.9823 72.409 98.9823 72.7289 98.8762C73.0488 98.7701 73.3687 98.5579 73.6887 98.1335L73.4754 98.9292H74.7551L75.8748 94.6856C75.8748 94.4734 75.9814 94.3143 75.9814 94.1552C75.9814 93.996 75.9814 93.8369 75.9814 93.7308C75.9814 93.1473 75.7682 92.776 75.3949 92.6168C74.9683 92.4577 74.4885 92.4047 73.8486 92.4047C73.2088 92.4047 72.6223 92.5107 72.1424 92.6699C71.6625 92.829 71.2892 93.4125 71.0226 94.3143H72.3557L72.249 94.2612ZM71.3426 96.8074V96.7544C71.3426 96.7544 71.3426 96.7544 71.3426 96.7013C71.3426 96.5952 71.3959 96.4891 71.4492 96.4361C71.4492 96.33 71.5558 96.277 71.6625 96.2239C71.7158 96.1709 71.8224 96.1178 71.9291 96.1178C72.0357 96.1178 72.089 96.0648 72.1957 96.0648C72.3023 96.0648 72.3557 96.0648 72.4623 96.0648C72.5689 96.0648 72.6223 96.0648 72.7289 96.0648H72.9422C72.9955 96.0648 73.1021 96.0648 73.1555 96.0648C73.2621 96.0648 73.4221 96.0648 73.5287 96.1178C73.6353 96.1178 73.742 96.2239 73.7953 96.277C73.7953 96.277 73.7953 96.33 73.8486 96.383C73.8486 96.383 73.8486 96.4891 73.8486 96.5422C73.8486 96.5952 73.8486 96.5952 73.8486 96.6483C73.8486 96.6483 73.8486 96.7013 73.8486 96.7544C73.8486 96.7544 73.8486 96.7544 73.8486 96.8074C73.8486 96.8074 73.8486 96.8074 73.8486 96.8605C73.8486 96.8605 73.8486 96.8605 73.8486 96.9135C73.8486 96.9135 73.8486 96.9135 73.8486 96.9665C73.742 97.3379 73.582 97.6031 73.3687 97.7092C73.1555 97.8153 72.8889 97.9214 72.6223 97.9214C72.5689 97.9214 72.5156 97.9214 72.4623 97.9214H72.3023C72.0357 97.9214 71.8224 97.9214 71.6625 97.8153C71.5025 97.7622 71.3959 97.6031 71.3959 97.3379C71.3959 97.0726 71.3959 97.1787 71.3959 97.1257C71.3959 97.0196 71.3959 96.9665 71.4492 96.8605L71.3426 96.8074ZM78.3808 92.3516L76.6746 98.8231H78.0076L79.0207 94.9508C79.1273 94.4734 79.3406 94.1021 79.6605 93.8369C79.9805 93.5717 80.3004 93.4656 80.7269 93.4656C81.1535 93.4656 81.2601 93.4656 81.3668 93.5717C81.4734 93.6777 81.5801 93.7838 81.5801 94.0491C81.5801 94.3143 81.5801 94.2612 81.5801 94.3673C81.5801 94.5265 81.5267 94.6326 81.4734 94.7917L80.407 98.7701H81.74L82.8598 94.3143C82.8598 94.1552 82.9664 93.943 82.9664 93.7838C82.9664 93.6247 82.9664 93.4656 82.9664 93.3595C82.9664 92.9351 82.8598 92.6168 82.5932 92.4577C82.3265 92.2986 81.9533 92.1925 81.4201 92.1925C80.8869 92.1925 80.8336 92.1925 80.567 92.3516C80.3004 92.4577 80.0871 92.6168 79.8205 92.829C79.7672 92.8821 79.6605 92.9882 79.6072 93.0412C79.5539 93.0942 79.4473 93.2003 79.3939 93.3064L79.6605 92.2986H78.3808V92.3516Z" fill="#B1B3B6"/>
</svg>
