<svg width="151" height="90" viewBox="0 0 151 90" fill="none" xmlns="http://www.w3.org/2000/svg">
<path d="M114.401 50.5697C114.401 50.5697 115.992 36.7191 101.287 26.4047C86.5815 16.0904 84.5481 8.98821 84.5481 8.98821C84.5481 8.98821 80.9234 23.6051 98.4283 32.1513C115.521 40.5206 114.401 50.5697 114.401 50.5697Z" fill="#00AEEF"/>
<path d="M128.929 52.9273C128.546 51.778 127.279 49.3615 125.157 48.2122C121.002 45.9725 117.554 47.8291 117.377 47.7996C117.377 51.1886 113.841 54.3124 113.841 54.3124C113.841 54.3124 113.281 42.6719 101.582 36.8369C89.8821 31.002 81.5717 22.5737 81.5717 22.5737C81.5717 22.5737 79.2436 33.6837 82.0137 40.1081C86.0216 50.0688 95.3929 47.0923 95.9528 59.5285C96.5128 71.9941 83.723 76.5914 83.723 76.5914C83.723 76.5914 99.8133 82.3085 118.762 61.5324C121.886 58.114 124.185 57.7603 126.012 57.5246C127.839 57.2888 129.961 57.4656 129.961 57.4656C129.961 57.4656 130.933 55.4322 129.106 54.6071C129.077 54.6071 129.312 54.0766 128.9 52.9273H128.929Z" fill="#25408F"/>
<path d="M139.98 62.6817L139.745 56.4931C139.745 56.4931 139.42 55.7564 139.037 55.3438L134.705 61.0904L140.01 62.6817H139.98ZM133.585 61.8271L138.86 55.1965C138.566 55.0491 138.153 54.9902 137.623 55.1965C137.593 55.1965 137.534 55.1965 137.505 55.2259L131.346 57.4067C131.169 58.2024 130.904 58.7328 130.904 58.7328C130.904 58.7328 129.725 58.6444 128.045 58.5855L125.246 59.5874L123.271 60.2947L133.585 61.8566V61.8271ZM131.965 62.2397L123.065 60.5894L123.301 69.9312C123.301 69.9312 123.418 70.5501 123.831 70.9921L131.935 62.2397H131.965ZM132.23 62.2692L124.273 71.2868C124.568 71.4342 124.951 71.4637 125.452 71.2868C125.481 71.2868 125.54 71.2868 125.57 71.2574C127.603 70.5206 140.039 63.2417 140.039 63.2417V63.0648L134.587 61.2672L133.615 62.446L132.23 62.2692Z" fill="#00AEEF"/>
<path d="M15.1179 57.7014C14.558 57.7014 14.057 57.9077 13.5855 58.2908C13.114 58.6739 12.8193 59.1454 12.7014 59.7053L10.7859 68.7525H14.3517L14.9411 65.9529H20.4224C21.4833 65.9529 22.3969 65.5992 23.1925 64.8625C23.8998 64.2141 24.4303 63.1238 24.7544 61.5619C24.9607 60.6483 24.8428 59.7348 24.4597 58.8802C23.9882 58.0845 23.222 57.7014 22.1316 57.7014H15.0589H15.1179ZM15.5305 63.1532L15.943 61.2083C15.9725 61.0609 16.0904 60.8841 16.2672 60.7367C16.444 60.5894 16.6503 60.501 16.8566 60.501H20.334C20.8939 60.501 21.1886 60.6189 21.277 60.8841C21.3065 61.1198 21.277 61.4145 21.2475 61.7387C21.1591 62.0923 21.0413 62.4165 20.8939 62.7112C20.6876 63.0059 20.334 63.1532 19.7741 63.1532H15.5305ZM25.2849 68.7525H28.8507L31.2083 57.7014H27.6424L25.2849 68.7525ZM39.0766 64.5088H40.7269C40.6974 64.7151 40.5501 65.0098 40.2849 65.3635C39.9902 65.7466 39.5481 65.9234 38.9882 65.9234H36.4833C35.9234 65.9234 35.5992 65.7171 35.4519 65.2751C35.3635 64.833 35.3929 64.332 35.5108 63.7132L35.7466 62.6817C35.8644 62.0629 36.0707 61.5619 36.336 61.1198C36.6012 60.6778 37.0432 60.4715 37.6326 60.4715H43.7033L44.2927 57.6719H36.6896C35.7466 57.6719 34.8625 57.9961 34.0373 58.6739C33.2122 59.3517 32.7112 60.1473 32.5049 61.1198L31.6208 65.2751C31.4145 66.2181 31.5914 67.0432 32.1218 67.6916C32.6523 68.3694 33.389 68.6935 34.332 68.6935H39.9607C40.9037 68.6935 41.7878 68.3694 42.613 67.6916C43.4086 67.0727 43.9096 66.3065 44.1159 65.4224L44.8232 62.1513H39.6071L39.1061 64.4794L39.0766 64.5088ZM45.442 68.7525H55.9037L56.4931 65.9529H49.5973L49.9214 64.3615H55.2554L55.7269 62.0923H50.3929L50.5697 61.2672C50.5992 61.0609 50.7171 60.8841 50.9234 60.7073C51.1002 60.5599 51.3065 60.4715 51.5128 60.4715H57.6424L58.2318 57.6719H49.7446C49.1847 57.6719 48.6837 57.8782 48.2122 58.2613C47.7407 58.6444 47.446 59.1159 47.3281 59.6758L45.4126 68.723L45.442 68.7525ZM63.6837 57.7014C62.7407 57.7014 61.8566 58.0255 61.0314 58.7033C60.2063 59.3811 59.7053 60.1768 59.499 61.1493L58.6149 65.3045C58.4086 66.2475 58.5855 67.0727 59.0864 67.721C59.6169 68.3988 60.3536 68.723 61.2967 68.723H66.9253C67.8684 68.723 68.7525 68.3988 69.5776 67.721C70.4027 67.0432 70.9037 66.2475 71.11 65.3045L71.9941 61.1493C72.2004 60.2063 72.0236 59.3811 71.4931 58.7033C70.9627 58.0255 70.2259 57.7014 69.2829 57.7014H63.6542H63.6837ZM67.8978 63.7426C67.78 64.332 67.5737 64.8625 67.3084 65.3045C66.9843 65.7466 66.5717 65.9529 66.0118 65.9529H63.5069C62.947 65.9529 62.6228 65.7466 62.4754 65.3045C62.387 64.8625 62.4165 64.3615 62.5344 63.7426L62.7701 62.7112C62.888 62.0923 63.0943 61.5914 63.3595 61.1493C63.6837 60.7073 64.0963 60.501 64.6562 60.501H67.1611C67.721 60.501 68.0452 60.7073 68.1925 61.1493C68.2809 61.5914 68.2515 62.0923 68.1336 62.7112L67.8978 63.7426ZM78.2416 57.7014C77.2986 57.7014 76.4145 58.0255 75.5894 58.7033C74.7642 59.3811 74.2633 60.1768 74.057 61.1493L72.4362 68.7525H76.002L77.2986 62.7112C77.4165 62.0923 77.6228 61.5914 77.888 61.1493C78.2122 60.7073 78.6248 60.501 79.1847 60.501H81.6896C82.2495 60.501 82.5737 60.7073 82.721 61.1493C82.78 61.5914 82.78 62.0923 82.6326 62.7112L81.336 68.7525H84.9018L86.5226 61.1493C86.7289 60.2063 86.5521 59.3811 86.0216 58.7033C85.4912 58.0255 84.7544 57.7014 83.8114 57.7014H78.1827H78.2416Z" fill="#25408F"/>
<path d="M45.5894 77.2397V77.446C45.4715 77.7996 45.3536 78.0943 45.1768 78.3006C45 78.5069 44.7937 78.6837 44.558 78.7721C44.3222 78.8605 44.057 78.9489 43.7918 78.9784C43.5265 78.9784 43.2024 79.0079 42.8193 79.0079C42.0236 79.0079 41.4931 78.89 41.169 78.6837C40.8448 78.4774 40.6974 78.1238 40.6974 77.5933C40.6974 77.0629 40.7564 76.7682 40.9037 76.1198C41.0216 75.501 41.169 75.0295 41.3163 74.6758C41.4637 74.3222 41.6699 74.0275 41.8762 73.8212C42.112 73.6149 42.3772 73.4676 42.7308 73.3792C43.055 73.2908 43.4971 73.2613 44.0275 73.2613C44.558 73.2613 45.2947 73.3497 45.5894 73.5265C45.8841 73.7033 46.0609 74.057 46.0609 74.5874C46.0609 75.1179 46.002 75.2652 45.9136 75.7662L45.7957 76.3261H41.7583C41.6405 76.9155 41.5521 77.3281 41.5521 77.5639C41.5521 77.7996 41.6405 78.0943 41.8468 78.1827C42.053 78.2711 42.4067 78.3301 42.9666 78.3301C43.5265 78.3301 43.556 78.3301 43.7328 78.3301C43.9096 78.3301 44.0864 78.2711 44.2043 78.2122C44.3222 78.1532 44.4401 78.0648 44.499 77.947C44.5874 77.8291 44.6464 77.6817 44.6758 77.4754V77.2692H45.5894V77.2397ZM45.0589 75.6483C45.1473 75.2063 45.1768 74.8821 45.1768 74.6758C45.1768 74.3811 45.0884 74.1749 44.9116 74.0864C44.7348 73.998 44.4106 73.9686 43.8802 73.9686C43.3497 73.9686 43.2024 73.9686 42.9666 74.057C42.7308 74.1159 42.554 74.2043 42.4362 74.3222C42.3183 74.4401 42.2004 74.6169 42.1415 74.7937C42.053 75 41.9646 75.2652 41.8762 75.6483H45.0295H45.0589ZM49.5383 76.002L50.9234 78.9194H49.9214L48.9489 76.6503L47.0039 78.9194H46.002L48.6542 76.002L47.4165 73.3202H48.3595L49.2141 75.3831L50.9234 73.3202H51.8959L49.5383 76.002ZM54.3418 74.0864C54.1061 74.1749 53.9293 74.2927 53.7819 74.4695C53.664 74.6464 53.5462 74.8527 53.4578 75.0884C53.3694 75.3242 53.3104 75.6778 53.1925 76.1198C53.0747 76.6503 53.0157 77.0334 53.0157 77.2692C53.0157 77.5049 53.1041 77.8585 53.3104 78.0354C53.5167 78.2122 53.8409 78.3006 54.3124 78.3006C54.7839 78.3006 54.9312 78.2711 55.1375 78.2122C55.3438 78.1532 55.5206 78.0354 55.668 77.888C55.8153 77.7407 55.9332 77.5049 56.0216 77.2397C56.11 76.9745 56.2279 76.5914 56.3163 76.1198C56.4342 75.501 56.5226 75.0589 56.5226 74.8232C56.5226 74.5874 56.4342 74.2633 56.2279 74.1454C56.0511 74.0275 55.6974 73.9391 55.2259 73.9391C54.7544 73.9391 54.5187 73.9686 54.2829 74.0864H54.3418ZM53.6641 73.998C53.8703 73.7328 54.165 73.5265 54.4892 73.4086C54.8134 73.2908 55.1965 73.2318 55.6385 73.2318C56.2868 73.2318 56.7584 73.3497 57.0236 73.5855C57.2888 73.8212 57.4361 74.1749 57.4361 74.6464C57.4361 75.1179 57.3772 75.442 57.2299 76.0904C57.112 76.6503 56.9646 77.1218 56.8173 77.4754C56.6699 77.8291 56.4931 78.1238 56.2574 78.3301C56.0511 78.5363 55.7859 78.7132 55.4912 78.8016C55.1965 78.89 54.8428 78.9489 54.4303 78.9489C54.0177 78.9489 54.0472 78.9489 53.8998 78.9489C53.723 78.9489 53.5756 78.89 53.4283 78.8605C53.2809 78.8016 53.1336 78.7426 53.0157 78.6542C52.8978 78.5658 52.8094 78.4185 52.78 78.2711L52.1316 81.3654H51.277L52.9862 73.3202H53.8409L53.6935 73.998H53.6641ZM60.0589 73.3202L59.8527 74.0275C60.0589 73.7623 60.2947 73.556 60.6189 73.4381C60.9136 73.3202 61.2672 73.2613 61.6208 73.2613C62.4754 73.2613 62.888 73.6149 62.888 74.3222C62.888 75.0295 62.888 74.6758 62.8291 74.8527L62.7407 75.2652H61.945L62.0334 74.8821C62.0334 74.7348 62.0629 74.6169 62.0629 74.499C62.0629 74.2927 62.0039 74.1454 61.8861 74.057C61.7682 73.9686 61.5619 73.9391 61.2672 73.9391C60.7662 73.9391 60.3831 74.057 60.1179 74.2927C59.8527 74.5285 59.6758 74.9116 59.5874 75.4126L58.8507 78.9194H57.9961L59.2043 73.3202H60.0295H60.0589ZM68.1925 77.2397V77.446C68.0747 77.7996 67.9568 78.0943 67.78 78.3006C67.6031 78.5069 67.3969 78.6837 67.1611 78.7721C66.9253 78.8605 66.6601 78.9489 66.3949 78.9784C66.1297 78.9784 65.8055 79.0079 65.4224 79.0079C64.6267 79.0079 64.0963 78.89 63.7721 78.6837C63.4479 78.4774 63.3006 78.1238 63.3006 77.5933C63.3006 77.0629 63.3595 76.7682 63.5069 76.1198C63.6248 75.501 63.7721 75.0295 63.9195 74.6758C64.0668 74.3222 64.2731 74.0275 64.4794 73.8212C64.7151 73.6149 64.9804 73.4676 65.334 73.3792C65.6582 73.2908 66.1002 73.2613 66.6307 73.2613C67.1611 73.2613 67.8978 73.3497 68.1925 73.5265C68.4872 73.7033 68.664 74.057 68.664 74.5874C68.664 75.1179 68.6051 75.2652 68.5167 75.7662L68.3988 76.3261H64.3615C64.2436 76.9155 64.1552 77.3281 64.1552 77.5639C64.1552 77.7996 64.2436 78.0943 64.4499 78.1827C64.6562 78.2711 65.0098 78.3301 65.5697 78.3301C66.1297 78.3301 66.1591 78.3301 66.336 78.3301C66.5128 78.3301 66.6896 78.2711 66.8075 78.2122C66.9253 78.1532 67.0432 78.0648 67.1022 77.947C67.1906 77.8291 67.2495 77.6817 67.279 77.4754V77.2692H68.1925V77.2397ZM67.6621 75.6483C67.7505 75.2063 67.78 74.8821 67.78 74.6758C67.78 74.3811 67.6916 74.1749 67.5147 74.0864C67.3379 73.998 67.0138 73.9686 66.4833 73.9686C65.9529 73.9686 65.8055 73.9686 65.5697 74.057C65.334 74.1159 65.1572 74.2043 65.0393 74.3222C64.9214 74.4401 64.8035 74.6169 64.7446 74.7937C64.6562 75 64.5678 75.2652 64.4794 75.6483H67.6326H67.6621ZM74.6464 74.7937H73.7623V74.5874C73.8212 74.5285 73.8212 74.4695 73.8212 74.4106C73.8212 74.2338 73.7328 74.1159 73.556 74.0864C73.3792 74.057 73.055 74.0275 72.613 74.0275C72.1709 74.0275 71.5815 74.057 71.3458 74.1454C71.11 74.2043 70.9627 74.4106 70.9037 74.7348C70.8743 74.9411 70.8448 75.1179 70.8448 75.2358C70.8448 75.442 70.9037 75.5599 71.0216 75.6189C71.1395 75.6778 71.3458 75.7073 71.6699 75.7073C71.6699 75.7073 71.7584 75.7073 71.8762 75.7073C72.0236 75.7073 72.2004 75.7073 72.4067 75.7073C72.7308 75.7073 72.9961 75.7367 73.2024 75.7662C73.4086 75.7662 73.5855 75.8251 73.7623 75.9136C73.9391 75.9725 74.057 76.0904 74.1749 76.2377C74.2633 76.3851 74.3222 76.5914 74.3222 76.8271C74.3222 77.0629 74.3222 77.1807 74.2633 77.387C74.1749 77.7701 74.057 78.0648 73.8802 78.3006C73.7033 78.5363 73.5265 78.6837 73.2908 78.8016C73.055 78.9194 72.8193 78.9784 72.554 79.0079C72.2888 79.0079 71.9646 79.0373 71.5815 79.0373C71.1984 79.0373 70.9332 79.0373 70.6974 79.0373C70.4617 79.0373 70.2259 78.9784 70.0197 78.9194C69.8134 78.8605 69.6365 78.7426 69.5187 78.6248C69.4008 78.4774 69.3419 78.3006 69.3419 78.0648C69.3419 77.8291 69.3418 77.8585 69.3713 77.7701L69.4892 77.2397H70.3733L70.2849 77.6817C70.2849 77.7407 70.2849 77.7996 70.2849 77.8585C70.2849 78.0354 70.4028 78.1827 70.609 78.2416C70.8153 78.3006 71.1984 78.3301 71.7878 78.3301H72.1709C72.4951 78.3301 72.7898 78.2711 72.9961 78.1532C73.2024 78.0354 73.3497 77.7996 73.4381 77.446C73.4676 77.2692 73.4971 77.1513 73.4971 77.0334C73.4971 76.8271 73.4381 76.6798 73.3202 76.6503C73.2024 76.5914 72.9666 76.5619 72.6424 76.5619C72.4362 76.5619 72.2888 76.5619 72.2004 76.5619C72.112 76.5619 71.9941 76.5619 71.8173 76.5619C71.4931 76.5619 71.2574 76.5324 71.0806 76.5029C70.9037 76.5029 70.7269 76.444 70.5501 76.3556C70.3733 76.2967 70.2554 76.1788 70.167 76.0314C70.0786 75.8841 70.0197 75.7073 70.0197 75.4715C70.0197 75.2358 70.0196 75.1768 70.0786 75C70.167 74.6169 70.2849 74.2927 70.4322 74.057C70.5796 73.8212 70.7859 73.6739 70.9921 73.556C71.2279 73.4381 71.4637 73.3792 71.7289 73.3497C71.9941 73.3202 72.3772 73.3202 72.8487 73.3202C73.3202 73.3202 73.3792 73.3202 73.5855 73.3202C73.7918 73.3202 73.998 73.3792 74.1749 73.4381C74.3517 73.4971 74.499 73.5855 74.6169 73.7328C74.7348 73.8802 74.7937 74.057 74.7937 74.2633C74.7937 74.4695 74.7937 74.499 74.7642 74.6169V74.8232H74.7348L74.6464 74.7937ZM80.5992 74.7937H79.7151V74.5874C79.7741 74.5285 79.7741 74.4695 79.7741 74.4106C79.7741 74.2338 79.6857 74.1159 79.5088 74.0864C79.332 74.057 79.0079 74.0275 78.5658 74.0275C78.1238 74.0275 77.5344 74.057 77.2986 74.1454C77.0629 74.2043 76.9155 74.4106 76.8566 74.7348C76.8271 74.9411 76.7976 75.1179 76.7976 75.2358C76.7976 75.442 76.8566 75.5599 76.9745 75.6189C77.0923 75.6778 77.2986 75.7073 77.6228 75.7073C77.6228 75.7073 77.7112 75.7073 77.8291 75.7073C77.9764 75.7073 78.1532 75.7073 78.389 75.7073C78.7132 75.7073 78.9784 75.7367 79.1847 75.7662C79.391 75.7662 79.5678 75.8251 79.7446 75.9136C79.9214 75.9725 80.0393 76.0904 80.1572 76.2377C80.2456 76.3851 80.3045 76.5914 80.3045 76.8271C80.3045 77.0629 80.3045 77.1807 80.2456 77.387C80.1572 77.7701 80.0393 78.0648 79.8625 78.3006C79.6857 78.5363 79.5088 78.6837 79.2731 78.8016C79.0373 78.9194 78.8016 78.9784 78.5364 79.0079C78.2711 79.0079 77.947 79.0373 77.5639 79.0373C77.1808 79.0373 76.9155 79.0373 76.6798 79.0373C76.444 79.0373 76.2083 78.9784 76.002 78.9194C75.7957 78.8605 75.6189 78.7426 75.501 78.6248C75.3831 78.4774 75.3242 78.3006 75.3242 78.0648C75.3242 77.8291 75.3242 77.8585 75.3536 77.7701L75.4715 77.2397H76.3556L76.2672 77.6817C76.2672 77.7407 76.2672 77.7996 76.2672 77.8585C76.2672 78.0354 76.3851 78.1827 76.5914 78.2416C76.7976 78.3006 77.1807 78.3301 77.7701 78.3301H78.1532C78.4774 78.3301 78.7721 78.2711 78.9784 78.1532C79.1847 78.0354 79.332 77.7996 79.4204 77.446C79.4499 77.2692 79.4794 77.1513 79.4794 77.0334C79.4794 76.8271 79.4204 76.6798 79.3026 76.6503C79.1847 76.5914 78.9489 76.5619 78.6248 76.5619C78.4185 76.5619 78.2711 76.5619 78.1827 76.5619C78.0943 76.5619 77.9764 76.5619 77.7996 76.5619C77.4754 76.5619 77.2397 76.5324 77.0629 76.5029C76.8861 76.5029 76.7092 76.444 76.5324 76.3556C76.3556 76.2967 76.2377 76.1788 76.1493 76.0314C76.0609 75.8841 76.002 75.7073 76.002 75.4715C76.002 75.2358 76.002 75.1768 76.0609 75C76.1493 74.6169 76.2672 74.2927 76.4145 74.057C76.5619 73.8212 76.7682 73.6739 76.9745 73.556C77.2102 73.4381 77.446 73.3792 77.7112 73.3497C77.9764 73.3202 78.3595 73.3202 78.831 73.3202C79.3026 73.3202 79.3615 73.3202 79.5678 73.3202C79.7741 73.3202 79.9804 73.3792 80.1572 73.4381C80.334 73.4971 80.4813 73.5855 80.5992 73.7328C80.7171 73.8802 80.776 74.057 80.776 74.2633C80.776 74.4695 80.776 74.499 80.7466 74.6169V74.8232H80.7171L80.5992 74.7937Z" fill="#00AEEF"/>
<path d="M15.0589 54.9018H17.3576C17.8291 54.9018 18.1827 54.7839 18.4185 54.5481C18.6542 54.3124 18.8605 53.9293 18.9784 53.4283C18.9784 53.3399 19.0373 53.222 19.0373 53.1336C19.0373 53.0452 19.0373 52.9568 19.0373 52.8684C19.0373 52.6916 19.0079 52.5737 18.9195 52.4558C18.831 52.3674 18.7132 52.279 18.5364 52.2495C18.831 52.1611 19.0373 52.0138 19.1552 51.8075C19.2731 51.6012 19.391 51.336 19.4499 51.0413C19.4499 50.9234 19.5088 50.835 19.5088 50.7466C19.5088 50.6582 19.5088 50.5697 19.5088 50.4813C19.5088 50.1866 19.4204 50.0098 19.2436 49.8919C19.0668 49.8035 18.831 49.7446 18.5364 49.7446H16.2967L14.9705 54.9018H15.0589ZM16.0904 54.1061L16.4735 52.6621H17.6817C17.8586 52.6621 18.0059 52.6621 18.0943 52.721C18.1827 52.7505 18.2417 52.8684 18.2417 53.0157C18.2417 53.1631 18.2417 53.1041 18.2417 53.1925C18.2417 53.2515 18.2417 53.3104 18.1827 53.3988C18.0943 53.7525 17.9764 53.9587 17.8291 54.0177C17.6817 54.1061 17.446 54.1356 17.1808 54.1356H16.1198L16.0904 54.1061ZM16.6798 51.9253L17.0334 50.5992H18.3006C18.4479 50.5992 18.5658 50.5992 18.6248 50.6582C18.6837 50.6876 18.7132 50.776 18.7132 50.8939C18.7132 51.0118 18.7132 50.9823 18.7132 51.0413C18.7132 51.1002 18.7132 51.1591 18.6837 51.2181C18.5953 51.5422 18.5069 51.7191 18.3595 51.8075C18.2417 51.8959 18.0354 51.9253 17.7701 51.9253H16.7092H16.6798ZM23.3399 51.3065H22.6031L22.0727 53.3104C21.9843 53.6346 21.8959 53.8703 21.7485 54.0472C21.6307 54.224 21.3949 54.2829 21.1002 54.2829C20.8055 54.2829 20.835 54.2829 20.776 54.1945C20.7171 54.1356 20.6876 54.0766 20.6876 53.9587C20.6876 53.8409 20.6876 53.8409 20.6876 53.7525C20.6876 53.6935 20.7171 53.6051 20.7466 53.5167L21.3065 51.3065H20.5698L19.9509 53.723C19.9509 53.8114 19.8919 53.8998 19.8919 53.9882C19.8919 54.0766 19.8919 54.165 19.8919 54.224C19.8919 54.4597 19.9509 54.6365 20.0982 54.7544C20.2456 54.8723 20.4224 54.9312 20.6876 54.9312C20.9529 54.9312 21.1297 54.9018 21.3065 54.8134C21.4833 54.725 21.6601 54.5481 21.8369 54.3124L21.6896 54.9018H22.3969L23.3399 51.3065ZM25.668 49.7741H24.9312L23.6051 54.9312H24.3419L25.668 49.7741ZM29.2043 51.3065H28.4971L28.3792 51.8664C28.3202 51.6012 28.2318 51.4538 28.114 51.3949C27.9961 51.336 27.8193 51.277 27.5835 51.277C27.053 51.277 26.6699 51.4538 26.4637 51.778C26.2279 52.1022 26.0511 52.5442 25.9332 53.0747C25.9037 53.222 25.8743 53.3694 25.8153 53.5167C25.7859 53.664 25.7564 53.8114 25.7269 53.9587C25.7269 53.9882 25.7269 54.0177 25.7269 54.0766C25.7269 54.1061 25.7269 54.1356 25.7269 54.1945C25.7269 54.4892 25.8153 54.6955 25.9921 54.8134C26.169 54.9312 26.4047 54.9902 26.6699 54.9902C26.9352 54.9902 27.0531 54.9607 27.2299 54.8723C27.4067 54.8134 27.5835 54.666 27.7014 54.4303L27.4951 55.1965C27.4067 55.4912 27.2888 55.6974 27.1415 55.7859C26.9941 55.8743 26.7878 55.9037 26.5521 55.9037C26.3163 55.9037 26.2868 55.9037 26.1984 55.8448C26.11 55.8153 26.0806 55.7269 26.0806 55.5796C26.0806 55.4322 26.0806 55.4912 26.0806 55.4617C26.0806 55.4322 26.0806 55.3733 26.11 55.3143H25.4028C25.4028 55.3143 25.4028 55.3143 25.4028 55.3438C25.4028 55.3733 25.4028 55.4322 25.4028 55.4617C25.4028 55.4912 25.4028 55.5206 25.4028 55.5796C25.4028 55.6385 25.4028 55.668 25.4028 55.7269C25.4028 55.7859 25.4028 55.8153 25.4028 55.8743V55.9332C25.4028 55.9332 25.4028 55.9332 25.4028 55.9627C25.4028 55.9627 25.4028 55.9627 25.4028 55.9921C25.4322 56.169 25.5206 56.3163 25.668 56.3752C25.8153 56.4342 25.9627 56.4931 26.1395 56.4931C26.1984 56.4931 26.2574 56.4931 26.3163 56.4931H26.4931C26.9941 56.4931 27.3772 56.4047 27.6424 56.1984C27.9077 55.9921 28.114 55.5796 28.2908 54.9902L29.2338 51.3065H29.2043ZM26.6405 53.0747L26.6994 52.8389C26.7878 52.5147 26.8762 52.279 26.9941 52.1611C27.112 52.0432 27.3183 51.9843 27.5835 51.9843C27.8487 51.9843 27.9371 52.0138 27.9961 52.1022C28.0845 52.1906 28.114 52.279 28.114 52.4263C28.114 52.5147 28.114 52.6326 28.0845 52.7505C28.0845 52.8684 28.0255 52.9862 27.9961 53.1336V53.222L27.9666 53.2809V53.3399C27.8782 53.6346 27.7898 53.8703 27.6719 54.0472C27.554 54.224 27.3477 54.3124 27.0236 54.3124C26.6994 54.3124 26.6994 54.2829 26.611 54.224C26.5226 54.165 26.4931 54.0766 26.4931 53.9293C26.4931 53.7819 26.4931 53.7819 26.4931 53.664C26.4931 53.5756 26.5226 53.4578 26.5521 53.3399L26.611 53.1041L26.6405 53.0747ZM30.8841 52.3674C30.8841 52.3674 30.8841 52.3379 30.8841 52.3084C30.8841 52.3084 30.8841 52.279 30.8841 52.2495C30.8841 52.22 30.9136 52.1906 30.943 52.1316C30.943 52.1022 30.9725 52.0727 31.002 52.0138C31.0314 51.9548 31.0904 51.9253 31.1493 51.8959C31.2083 51.8959 31.2672 51.8369 31.3261 51.8369C31.3851 51.8369 31.4145 51.8369 31.4735 51.8369C31.5324 51.8369 31.5619 51.8369 31.5914 51.8369C31.7682 51.8369 31.9155 51.8369 32.0039 51.8959C32.0923 51.9548 32.1218 52.0432 32.1218 52.1611C32.1218 52.279 32.1218 52.2495 32.1218 52.3379C32.1218 52.3969 32.1218 52.4853 32.0629 52.5442L31.9155 53.1041C31.9155 53.0452 31.8861 53.0157 31.8566 52.9568C31.8566 52.9273 31.7976 52.8684 31.7682 52.8389C31.7092 52.8094 31.6503 52.78 31.5914 52.78C31.503 52.78 31.444 52.78 31.3851 52.7505C31.3261 52.7505 31.2967 52.7505 31.2672 52.7505H31.1493C30.7957 52.7505 30.501 52.8389 30.2358 52.9862C30 53.1336 29.8232 53.4578 29.7053 53.8998C29.7053 53.9882 29.6758 54.0472 29.6464 54.1356C29.6464 54.1945 29.6464 54.2829 29.6464 54.3418C29.6464 54.6071 29.7348 54.7839 29.9116 54.8723C30.0884 54.9607 30.2947 54.9902 30.5599 54.9902C30.8252 54.9902 30.9725 54.9902 31.1493 54.9312C31.3261 54.8723 31.503 54.7544 31.6798 54.5187L31.5619 54.9607H32.2692L32.888 52.6031C32.888 52.4853 32.947 52.3969 32.947 52.3084C32.947 52.22 32.947 52.1316 32.947 52.0727C32.947 51.7485 32.8291 51.5422 32.6228 51.4538C32.387 51.3654 32.1218 51.336 31.7682 51.336C31.4145 51.336 31.0904 51.3949 30.8252 51.4833C30.5599 51.5717 30.3536 51.8959 30.2063 52.3969H30.943L30.8841 52.3674ZM30.3831 53.7819V53.7525C30.3831 53.7525 30.3831 53.7525 30.3831 53.723C30.3831 53.664 30.4126 53.6051 30.442 53.5756C30.442 53.5167 30.501 53.4872 30.5599 53.4578C30.5894 53.4283 30.6483 53.3988 30.7073 53.3988C30.7662 53.3988 30.7957 53.3694 30.8546 53.3694C30.9136 53.3694 30.943 53.3694 31.002 53.3694C31.0609 53.3694 31.0904 53.3694 31.1493 53.3694H31.2672C31.2967 53.3694 31.3556 53.3694 31.3851 53.3694C31.444 53.3694 31.5324 53.3694 31.5914 53.3988C31.6503 53.3988 31.7092 53.4578 31.7682 53.4872C31.7682 53.4872 31.7682 53.5167 31.7976 53.5462C31.7976 53.5462 31.7976 53.6051 31.7976 53.6346C31.7976 53.664 31.7976 53.664 31.7976 53.6935C31.7976 53.6935 31.7976 53.723 31.7976 53.7525C31.7976 53.7525 31.7976 53.7525 31.7976 53.7819C31.7976 53.7819 31.7976 53.7819 31.7976 53.8114C31.7976 53.8114 31.7976 53.8114 31.7976 53.8409C31.7976 53.8409 31.7976 53.8409 31.7976 53.8703C31.7387 54.0766 31.6503 54.224 31.5324 54.2829C31.4145 54.3418 31.2672 54.4008 31.1198 54.4008C31.0904 54.4008 31.0609 54.4008 31.0314 54.4008H30.943C30.7957 54.4008 30.6778 54.4008 30.5894 54.3418C30.501 54.3124 30.442 54.224 30.442 54.0766C30.442 53.9293 30.442 53.9882 30.442 53.9587C30.442 53.8998 30.442 53.8703 30.4715 53.8114L30.3831 53.7819ZM34.3026 51.3065L33.3595 54.9018H34.0963L34.6562 52.7505C34.6562 52.7505 34.6562 52.7505 34.6562 52.721C34.6562 52.721 34.6562 52.721 34.6562 52.6916C34.6562 52.6916 34.6562 52.6916 34.6562 52.6621C34.6562 52.6621 34.6562 52.6621 34.6562 52.6326C34.7151 52.4263 34.8035 52.2495 34.9214 52.1316C35.0393 52.0138 35.1866 51.9253 35.3635 51.9253C35.5403 51.9253 35.5697 51.9253 35.5992 51.9843C35.6582 52.0138 35.6582 52.0727 35.6582 52.1611C35.6582 52.2495 35.6582 52.279 35.6582 52.3379C35.6582 52.3969 35.6287 52.4558 35.5992 52.5442V52.6916C35.5697 52.6916 36.2475 52.6916 36.2475 52.6916L36.3065 52.4558C36.336 52.3379 36.3654 52.2495 36.3654 52.1316C36.3654 52.0432 36.3654 51.9253 36.3654 51.8664C36.3654 51.6896 36.3065 51.5422 36.2181 51.4244C36.1297 51.3065 35.9529 51.277 35.7171 51.277C35.4813 51.277 35.3929 51.3065 35.2161 51.3949C35.0688 51.4833 34.9214 51.6306 34.7741 51.8075L34.9214 51.336H34.2141L34.3026 51.3065Z" fill="#B1B3B6"/>
<path d="M38.2809 51.3065H37.5442L36.6012 54.9018H37.3379L38.2809 51.3065ZM38.6935 49.7741H37.9568L37.7505 50.5108H38.4872L38.6935 49.7741ZM39.9312 52.3674C39.9312 52.3674 39.9312 52.3379 39.9312 52.3084C39.9312 52.3084 39.9312 52.279 39.9312 52.2495C39.9312 52.22 39.9607 52.1906 39.9902 52.1316C39.9902 52.1022 40.0196 52.0727 40.0491 52.0138C40.0786 51.9548 40.1375 51.9253 40.1964 51.8959C40.2554 51.8959 40.3143 51.8369 40.3733 51.8369C40.4322 51.8369 40.4617 51.8369 40.5206 51.8369C40.5796 51.8369 40.609 51.8369 40.6385 51.8369C40.8153 51.8369 40.9627 51.8369 41.0511 51.8959C41.1395 51.9548 41.1689 52.0432 41.1689 52.1611C41.1689 52.279 41.1689 52.2495 41.1689 52.3379C41.1689 52.3969 41.1689 52.4853 41.11 52.5442L40.9627 53.1041C40.9627 53.0452 40.9332 53.0157 40.9037 52.9568C40.9037 52.9273 40.8448 52.8684 40.8153 52.8389C40.7564 52.8094 40.6974 52.78 40.6385 52.78C40.5501 52.78 40.4911 52.78 40.4322 52.7505C40.3733 52.7505 40.3438 52.7505 40.3143 52.7505H40.1964C39.8428 52.7505 39.5481 52.8389 39.2829 52.9862C39.0471 53.1336 38.8703 53.4578 38.7524 53.8998C38.7524 53.9882 38.723 54.0471 38.6935 54.1356C38.6935 54.1945 38.6935 54.2829 38.6935 54.3418C38.6935 54.6071 38.7819 54.7839 38.9587 54.8723C39.1355 54.9607 39.3418 54.9902 39.6071 54.9902C39.8723 54.9902 40.0196 54.9902 40.1964 54.9312C40.3733 54.8723 40.5501 54.7544 40.7269 54.5187L40.609 54.9607H41.3163L41.9352 52.6031C41.9352 52.4853 41.9941 52.3969 41.9941 52.3084C41.9941 52.22 41.9941 52.1316 41.9941 52.0727C41.9941 51.7485 41.8762 51.5422 41.6699 51.4538C41.4342 51.3654 41.1689 51.336 40.8153 51.336C40.4617 51.336 40.1375 51.3949 39.8723 51.4833C39.6071 51.5717 39.4008 51.8959 39.2534 52.3969H39.9902L39.9312 52.3674ZM39.4302 53.7819V53.7525C39.4302 53.7525 39.4302 53.7525 39.4302 53.723C39.4302 53.664 39.4597 53.6051 39.4892 53.5756C39.4892 53.5167 39.5481 53.4872 39.6071 53.4578C39.6365 53.4283 39.6955 53.3988 39.7544 53.3988C39.8133 53.3988 39.8428 53.3694 39.9018 53.3694C39.9607 53.3694 39.9902 53.3694 40.0491 53.3694C40.108 53.3694 40.1375 53.3694 40.1964 53.3694H40.3143C40.3438 53.3694 40.4027 53.3694 40.4322 53.3694C40.4911 53.3694 40.5796 53.3693 40.6385 53.3988C40.6974 53.3988 40.7564 53.4578 40.7858 53.4872C40.7858 53.4872 40.7858 53.5167 40.8153 53.5462C40.8153 53.5462 40.8153 53.6051 40.8153 53.6346C40.8153 53.664 40.8153 53.664 40.8153 53.6935C40.8153 53.6935 40.8153 53.723 40.8153 53.7525C40.8153 53.7525 40.8153 53.7525 40.8153 53.7819C40.8153 53.7819 40.8153 53.7819 40.8153 53.8114C40.8153 53.8114 40.8153 53.8114 40.8153 53.8409C40.8153 53.8409 40.8153 53.8409 40.8153 53.8703C40.7564 54.0766 40.668 54.224 40.5501 54.2829C40.4322 54.3418 40.2849 54.4008 40.1375 54.4008C40.108 54.4008 40.0786 54.4008 40.0491 54.4008H39.9607C39.8133 54.4008 39.6955 54.4008 39.6071 54.3418C39.5186 54.3124 39.4597 54.224 39.4597 54.0766C39.4597 53.9293 39.4597 53.9882 39.4597 53.9587C39.4597 53.8998 39.4597 53.8703 39.4892 53.8114L39.4302 53.7819ZM43.3202 51.3065L42.3772 54.9018H43.1139L43.6739 52.7505C43.7328 52.4853 43.8507 52.279 44.0275 52.1316C44.2043 51.9843 44.3811 51.9253 44.6169 51.9253C44.8526 51.9253 44.9116 51.9253 44.9705 51.9843C45.0295 52.0432 45.0884 52.1022 45.0884 52.2495C45.0884 52.3969 45.0884 52.3674 45.0884 52.4263C45.0884 52.5147 45.0589 52.5737 45.0295 52.6621L44.4401 54.8723H45.1768L45.7957 52.3969C45.7957 52.3084 45.8546 52.1906 45.8546 52.1022C45.8546 52.0138 45.8546 51.9253 45.8546 51.8664C45.8546 51.6306 45.7957 51.4538 45.6483 51.3654C45.501 51.277 45.2947 51.2181 45 51.2181C44.7053 51.2181 44.6758 51.2181 44.5285 51.3065C44.3811 51.3654 44.2632 51.4538 44.1159 51.5717C44.0864 51.6012 44.0275 51.6601 43.998 51.6896C43.9686 51.7191 43.9096 51.778 43.8801 51.8369L44.0275 51.277H43.3202V51.3065Z" fill="#B1B3B6"/>
</svg>
