<svg width="48" height="48" viewBox="0 0 48 48" fill="none" xmlns="http://www.w3.org/2000/svg">
<g clip-path="url(#clip0_1_676)">
<path d="M16.9688 38.3438H29.7188" stroke="#03045E" stroke-miterlimit="10" stroke-linejoin="round"/>
<path d="M19.7812 24.0938H8.53125C4.59619 24.0938 1.40625 27.2837 1.40625 31.2188C1.40625 35.1538 4.59619 38.3438 8.53125 38.3438" stroke="#03045E" stroke-miterlimit="10" stroke-linejoin="round"/>
<path d="M39.4688 9.84375C43.4038 9.84375 46.5938 13.0337 46.5938 16.9688C46.5938 20.9038 43.4038 24.0938 39.4688 24.0938H28.2188" stroke="#03045E" stroke-miterlimit="10" stroke-linejoin="round"/>
<path d="M18.2812 9.84375H31.0312" stroke="#03045E" stroke-miterlimit="10" stroke-linejoin="round"/>
<path d="M9.84375 18.2812C14.5037 18.2812 18.2812 14.5037 18.2812 9.84375C18.2812 5.18385 14.5037 1.40625 9.84375 1.40625C5.18385 1.40625 1.40625 5.18385 1.40625 9.84375C1.40625 14.5037 5.18385 18.2812 9.84375 18.2812Z" fill="#A2D2FF" stroke="#03045E" stroke-miterlimit="10" stroke-linejoin="round"/>
<path d="M7.85504 5.625L12.0738 9.84375L7.85504 14.0625" stroke="#03045E" stroke-miterlimit="10" stroke-linejoin="round"/>
<path d="M38.1562 46.5938C42.8162 46.5938 46.5938 42.8162 46.5938 38.1562C46.5938 33.4963 42.8162 29.7188 38.1562 29.7188C33.4963 29.7188 29.7188 33.4963 29.7188 38.1562C29.7188 42.8162 33.4963 46.5938 38.1562 46.5938Z" stroke="#03045E" stroke-miterlimit="10" stroke-linejoin="round"/>
<path d="M38.1562 40.9688C39.7096 40.9688 40.9688 39.7096 40.9688 38.1562C40.9688 36.6029 39.7096 35.3438 38.1562 35.3438C36.6029 35.3438 35.3438 36.6029 35.3438 38.1562C35.3438 39.7096 36.6029 40.9688 38.1562 40.9688Z" fill="#A2D2FF" stroke="#03045E" stroke-miterlimit="10" stroke-linejoin="round"/>
<path d="M24 28.2188C26.33 28.2188 28.2188 26.33 28.2188 24C28.2188 21.67 26.33 19.7812 24 19.7812C21.67 19.7812 19.7812 21.67 19.7812 24C19.7812 26.33 21.67 28.2188 24 28.2188Z" stroke="#03045E" stroke-miterlimit="10" stroke-linejoin="round"/>
<path d="M12.75 42.5625C15.08 42.5625 16.9688 40.6737 16.9688 38.3438C16.9688 36.0138 15.08 34.125 12.75 34.125C10.42 34.125 8.53125 36.0138 8.53125 38.3438C8.53125 40.6737 10.42 42.5625 12.75 42.5625Z" stroke="#03045E" stroke-miterlimit="10" stroke-linejoin="round"/>
<path d="M35.25 13.875C37.58 13.875 39.4688 11.9862 39.4688 9.65625C39.4688 7.3263 37.58 5.4375 35.25 5.4375C32.92 5.4375 31.0312 7.3263 31.0312 9.65625C31.0312 11.9862 32.92 13.875 35.25 13.875Z" stroke="#03045E" stroke-miterlimit="10" stroke-linejoin="round"/>
</g>
<defs>
<clipPath id="clip0_1_676">
<rect width="48" height="48" fill="white"/>
</clipPath>
</defs>
</svg>
