<svg width="48" height="48" viewBox="0 0 48 48" fill="none" xmlns="http://www.w3.org/2000/svg">
<g clip-path="url(#clip0_1_680)">
<path d="M8.25516 35.8288C6.50559 35.8288 5.08725 34.4105 5.08725 32.6609C5.08725 30.9112 6.50559 29.4929 8.25516 29.4929C10.0047 29.4929 11.4231 30.9112 11.4231 32.6609C11.4231 34.4105 10.0047 35.8288 8.25516 35.8288ZM13.5819 28.1404C12.2313 26.6387 10.2751 25.7661 8.25516 25.7662C6.23522 25.7661 4.27903 26.6387 2.92838 28.1404C-0.535687 31.9918 1.22269 37.7281 3.61659 41.5803C4.91484 43.6694 6.51872 45.5605 8.25516 47.2969C9.99159 45.5605 11.5955 43.6694 12.8937 41.5803C15.2875 37.7281 17.046 31.9918 13.5819 28.1404Z" fill="#A2D2FF" stroke="#03045E" stroke-miterlimit="10" stroke-linejoin="round"/>
<path d="M45.0717 3.07739C43.721 1.5757 41.7647 0.703075 39.7449 0.703075C37.7249 0.703075 35.7688 1.5757 34.4181 3.07739C30.9539 6.92883 32.7124 12.6651 35.1063 16.5173C36.4046 18.6064 38.0084 20.4975 39.7449 22.2339C41.4813 20.4975 43.0852 18.6064 44.3834 16.5173C46.7773 12.6651 48.5357 6.92883 45.0717 3.07739Z" fill="#A2D2FF" stroke="#03045E" stroke-miterlimit="10" stroke-linejoin="round"/>
<path d="M39.7449 10.7658C37.9953 10.7658 36.577 9.34746 36.577 7.5979C36.577 5.84825 37.9953 4.4299 39.7449 4.4299C41.4944 4.4299 42.9128 5.84825 42.9128 7.5979C42.9128 9.34746 41.4944 10.7658 39.7449 10.7658Z" fill="white" stroke="#03045E" stroke-miterlimit="10" stroke-linejoin="round"/>
<path d="M26.2697 42.7535C26.2697 42.1423 26.5606 41.5482 27.0822 41.1759C27.5932 40.8134 27.8957 40.2254 27.8957 39.5991V38.9404C27.8957 38.4492 27.7086 37.9758 27.3722 37.6169L26.3618 36.5395C25.7418 35.8782 25.6638 34.8742 26.1748 34.1251L26.4459 33.7278C27.1717 32.6629 26.6741 31.1998 25.4508 30.798L22.5175 29.8351C22.2482 29.7465 22.0217 29.5631 21.8794 29.3179L19.8678 25.8574C19.4301 25.103 18.3456 25.0887 17.8874 25.8314L17.406 26.6118C17.193 26.9563 16.8198 27.1603 16.4243 27.1603C16.359 27.1603 16.2928 27.155 16.2274 27.1433C15.5607 27.0288 15.1356 26.3683 15.3057 25.7143L16.3473 21.7267C16.4297 21.409 16.6444 21.1414 16.9361 20.991L19.0588 19.8985C19.4498 19.698 19.6852 19.2971 19.6852 18.872C19.6852 18.7888 19.6762 18.7047 19.6575 18.6215C19.4606 17.7346 18.7465 17.0554 17.8517 16.9024L16.4538 16.6634C16.0127 16.5883 15.5884 16.4299 15.2055 16.1972L12.1253 14.3278C11.3638 13.8652 10.8027 13.1341 10.5539 12.2786L10.1262 10.8102C7.05316 14.4129 5.19897 19.085 5.19897 24.1903C5.19897 24.9373 5.23976 25.6748 5.3171 26.4013C6.23407 25.9887 7.23635 25.7661 8.25513 25.7661C10.2751 25.7661 12.2313 26.6386 13.582 28.1403C16.7839 31.7005 15.5237 36.8708 13.424 40.6752C16.8769 43.2779 21.1731 44.8215 25.8303 44.8215C26.2061 44.8215 26.5803 44.8117 26.9516 44.7912L26.4155 43.49C26.3171 43.251 26.2697 43.0005 26.2697 42.7535Z" stroke="#03045E" stroke-miterlimit="10" stroke-linejoin="round"/>
<path d="M44.7369 15.9258C44.621 16.1273 44.503 16.3247 44.3834 16.5173C43.0851 18.6064 41.4813 20.4976 39.7448 22.2339C38.1293 20.6184 36.6289 18.8687 35.3822 16.9505C35.3823 16.9507 35.3825 16.9509 35.3825 16.9509C35.225 16.9779 35.063 16.9875 34.8989 16.9758L34.3655 16.9373C34.277 16.931 34.1893 16.9284 34.1007 16.9284C33.0582 16.9284 32.0586 17.3641 31.3481 18.1382C30.8997 18.6277 30.5901 19.2273 30.4505 19.8761L30.1293 21.3723C30.0156 21.8994 29.7901 22.3961 29.4662 22.8265L27.7158 25.1621C27.3086 25.7062 27.425 26.4784 27.9753 26.8776L29.492 27.9774C29.7865 28.1904 30.1606 28.2611 30.5132 28.1698L32.6358 27.6176C32.8309 27.5666 33.0295 27.5425 33.2264 27.5425C33.8493 27.5425 34.4551 27.7894 34.9034 28.245C35.3454 28.6942 35.9495 28.9474 36.5795 28.9474H37.7768C38.1616 28.9474 38.5401 29.0414 38.8793 29.2221L40.091 29.8647C40.2073 29.9264 40.3183 29.998 40.4221 30.0785L44.4177 33.1516C45.7269 30.4418 46.4607 27.4011 46.4607 24.1903C46.4607 21.2514 45.8449 18.4564 44.7369 15.9258Z" stroke="#03045E" stroke-miterlimit="10" stroke-linejoin="round"/>
<path d="M37.28 41.3542C40.3318 39.3143 42.8095 36.4825 44.4176 33.1515L40.4221 30.0786C40.3182 29.998 40.2073 29.9264 40.0909 29.8647L38.8794 29.2222C38.5402 29.0413 38.1616 28.9474 37.7768 28.9474H36.5795C35.9495 28.9474 35.3455 28.6942 34.9033 28.2449C34.455 27.7895 33.8492 27.5425 33.2264 27.5425C33.0296 27.5425 32.8308 27.5667 32.6358 27.6177L30.5131 28.1698C30.1606 28.2611 29.7865 28.1904 29.4921 27.9774L27.9753 26.8776C27.4249 26.4785 27.3086 25.7062 27.7157 25.1621L29.4661 22.8265C29.79 22.3961 30.0156 21.8994 30.1292 21.3723L30.4505 19.8761C30.5901 19.2273 30.8997 18.6278 31.3481 18.1383C32.0586 17.3642 33.0581 16.9284 34.1006 16.9284C34.1892 16.9284 34.277 16.9311 34.3656 16.9373L34.8989 16.9758C35.063 16.9875 35.2249 16.978 35.3824 16.951C35.289 16.8073 35.1968 16.6629 35.1063 16.5173C33.0698 13.2401 31.4939 8.59953 33.2015 4.91572C30.9124 4.03963 28.4276 3.55897 25.8303 3.55897C22.3805 3.55897 19.1298 4.40703 16.2724 5.90366" stroke="#03045E" stroke-miterlimit="10" stroke-linejoin="round"/>
<path d="M37.584 41.1759C37.4688 41.2849 35.6452 42.3036 34.7478 42.7994C32.3665 43.9425 29.7321 44.6422 26.9516 44.7912L26.4155 43.49C26.3171 43.2511 26.2697 43.0006 26.2697 42.7535C26.2697 42.1424 26.5605 41.5482 27.0822 41.1759C27.5931 40.8135 27.8957 40.2255 27.8957 39.5991V38.9404C27.8957 38.4492 27.7086 37.9759 27.3722 37.617L26.3618 36.5395C25.7417 35.8782 25.6638 34.8742 26.1748 34.1252L26.4459 33.7279C27.1716 32.6629 26.6741 31.1998 25.4508 30.7981L22.5174 29.8352C22.2481 29.7466 22.0217 29.5631 21.8794 29.3179L19.8677 25.8575C19.4301 25.103 18.3455 25.0887 17.8874 25.8315L17.4059 26.6119C17.193 26.9564 16.8198 27.1604 16.4243 27.1604C16.3589 27.1604 16.2927 27.155 16.2273 27.1433C15.5607 27.0289 15.1356 26.3684 15.3057 25.7143L16.3473 21.7267C16.4297 21.409 16.6443 21.1414 16.9361 20.9911L19.0588 19.8985C19.4498 19.6981 19.6851 19.2971 19.6851 18.872C19.6851 18.7888 19.6762 18.7047 19.6574 18.6215C19.4605 17.7347 18.7465 17.0555 17.8516 16.9025L16.4538 16.6635C16.0126 16.5884 15.5884 16.43 15.2055 16.1973L12.1253 14.3279C11.3638 13.8652 10.8027 13.1342 10.5539 12.2786L10.1261 10.8102V10.8093C11.2122 9.53595 12.4509 8.39726 13.813 7.41955C14.4261 6.94626 15.8723 6.0189 16.752 5.7117" stroke="#03045E" stroke-miterlimit="10" stroke-linejoin="round"/>
</g>
<defs>
<clipPath id="clip0_1_680">
<rect width="48" height="48" fill="white"/>
</clipPath>
</defs>
</svg>
